<?xml version="1.0" encoding="UTF-8" ?>
<!DOCTYPE svg PUBLIC "-//W3C//DTD SVG 1.1//EN" "http://www.w3.org/Graphics/SVG/1.1/DTD/svg11.dtd">
<svg width="500pt" height="500pt" viewBox="0 0 500 500" version="1.1" xmlns="http://www.w3.org/2000/svg">
<g id="#345457ff">
<path fill="#345457" opacity="1.00" d=" M 234.60 20.87 C 280.65 16.87 327.76 27.24 367.98 49.98 C 413.48 75.75 449.75 117.56 468.56 166.37 C 476.45 186.71 481.66 208.15 483.39 229.92 C 485.27 256.07 483.68 282.61 476.88 308.01 C 467.04 344.78 448.39 379.39 422.18 407.09 C 396.78 434.05 365.01 455.06 329.95 467.15 C 280.52 484.32 225.26 484.00 176.04 466.27 C 121.81 446.73 75.40 405.99 49.59 354.39 C 34.63 325.54 26.18 293.39 24.66 260.95 C 22.70 223.92 30.21 186.51 45.86 152.93 C 58.66 124.97 77.56 99.95 100.21 79.22 C 136.99 45.68 185.11 25.25 234.60 20.87 M 185.63 73.16 C 185.64 76.46 187.40 79.34 188.44 82.37 C 185.64 80.78 182.90 79.08 179.94 77.81 C 180.42 81.08 184.34 81.82 186.32 84.07 C 183.46 84.06 180.61 84.17 177.76 84.05 C 178.88 87.37 183.56 85.57 186.24 86.52 C 183.86 88.84 180.10 89.24 178.31 92.21 C 181.27 91.79 184.00 90.52 186.77 89.47 C 185.01 92.51 182.45 95.15 181.56 98.65 C 185.53 97.54 186.33 92.62 189.73 90.60 C 189.36 93.96 188.98 97.32 188.88 100.70 C 189.31 100.46 190.15 99.99 190.58 99.75 C 191.22 96.89 191.37 93.95 191.98 91.07 C 194.38 93.93 193.93 99.45 198.12 100.39 C 197.13 96.71 195.56 93.24 194.19 89.71 C 197.45 91.38 199.94 94.39 203.59 95.30 C 202.31 91.76 198.47 90.43 196.12 87.77 C 199.33 88.00 202.55 88.11 205.77 88.06 C 204.04 84.93 199.81 86.28 196.89 85.50 C 199.39 84.42 201.73 83.01 204.21 81.87 C 201.57 79.77 198.43 82.76 195.65 83.22 C 197.09 79.84 201.47 77.76 201.12 73.80 C 198.35 75.76 196.24 78.45 193.89 80.87 C 194.02 78.28 194.16 75.69 194.21 73.10 C 190.69 74.51 193.18 79.34 190.45 81.40 C 189.02 78.58 188.52 74.96 185.63 73.16 M 226.69 77.20 C 226.77 78.26 226.93 80.37 227.00 81.42 C 225.78 81.40 224.57 81.42 223.35 81.47 C 222.91 83.26 225.53 83.28 226.59 84.13 C 226.37 85.57 226.08 86.99 225.74 88.40 C 226.76 87.59 227.83 86.82 228.91 86.07 C 229.72 86.73 230.37 87.72 231.47 87.94 C 231.59 87.31 231.83 86.06 231.94 85.43 C 233.00 85.41 234.06 85.40 235.12 85.39 C 234.47 84.12 233.90 82.82 233.45 81.47 C 232.87 80.23 232.64 78.91 232.77 77.52 C 231.71 78.21 230.65 78.90 229.58 79.57 C 228.55 78.87 227.58 78.07 226.69 77.20 M 218.85 95.10 C 218.75 95.72 218.54 96.94 218.44 97.56 C 217.79 97.79 216.50 98.25 215.85 98.48 C 216.09 99.49 216.76 100.17 217.84 100.52 C 217.84 101.20 217.83 102.58 217.83 103.26 C 219.25 103.39 220.68 103.46 222.12 103.45 C 222.56 101.74 223.66 100.18 225.30 99.46 C 224.56 99.20 223.07 98.68 222.32 98.42 C 222.27 97.75 222.17 96.42 222.12 95.76 C 221.03 95.54 219.94 95.32 218.85 95.10 M 233.31 95.14 C 232.78 96.79 233.33 97.35 234.95 96.83 C 235.47 95.19 234.92 94.63 233.31 95.14 M 228.35 97.15 C 228.84 97.73 228.84 97.73 228.35 97.15 M 234.44 102.36 C 233.18 103.68 235.35 105.93 236.71 104.65 C 238.16 103.33 235.77 101.04 234.44 102.36 M 159.46 104.70 C 158.38 109.14 158.39 113.77 157.49 118.26 C 154.81 114.30 154.85 108.59 150.80 105.65 C 151.03 110.79 154.19 115.15 155.14 120.15 C 150.41 116.99 147.65 111.06 142.18 109.22 C 143.58 113.21 147.64 115.23 149.83 118.72 C 146.77 117.38 143.88 115.62 140.62 114.78 C 142.09 118.22 146.31 118.77 149.10 120.76 C 144.94 121.42 140.60 119.41 136.62 121.11 C 141.34 123.99 147.34 121.98 152.23 124.37 C 148.50 125.99 144.43 126.92 141.00 129.16 C 140.92 129.64 140.76 130.59 140.68 131.06 C 144.60 129.77 148.26 127.79 152.29 126.85 C 149.44 130.88 144.92 133.78 143.44 138.68 C 147.91 137.01 149.51 131.75 153.55 129.34 C 152.27 132.94 149.93 136.14 149.38 139.99 C 152.87 138.20 153.29 133.64 155.74 130.79 C 155.62 134.94 154.64 139.01 154.51 143.16 C 154.87 143.37 155.60 143.81 155.97 144.03 C 157.36 139.17 157.38 134.06 158.40 129.13 C 159.96 131.94 160.87 135.02 161.94 138.04 C 162.61 139.56 163.12 141.87 165.34 141.62 C 164.47 137.56 162.28 133.92 161.70 129.78 C 165.43 132.45 168.63 135.84 172.66 138.11 C 172.63 137.66 172.57 136.75 172.53 136.30 C 169.85 133.16 166.00 131.19 163.56 127.78 C 166.93 128.67 170.12 130.32 173.66 130.50 C 171.76 127.94 168.45 127.47 165.76 126.17 C 169.54 125.89 173.26 126.82 177.03 126.79 L 177.68 126.14 L 177.28 125.17 C 172.50 124.10 167.56 124.14 162.79 123.07 C 166.58 120.67 171.13 119.98 175.00 117.75 C 174.98 117.33 174.93 116.47 174.91 116.05 C 170.44 116.65 166.71 119.54 162.28 120.32 C 164.99 115.69 170.52 112.69 171.64 107.28 C 167.47 109.44 165.40 113.93 161.97 116.96 C 162.67 114.18 163.79 111.51 164.13 108.65 C 162.91 109.95 161.74 111.29 160.55 112.61 C 161.09 109.63 161.02 106.60 161.11 103.59 C 160.70 103.87 159.87 104.42 159.46 104.70 M 179.24 105.08 C 178.70 106.70 179.25 107.27 180.88 106.78 C 181.41 105.16 180.87 104.59 179.24 105.08 M 184.33 105.29 C 183.76 106.89 184.29 107.47 185.94 107.03 C 186.51 105.42 185.97 104.84 184.33 105.29 M 259.47 110.69 C 258.52 110.43 257.58 110.18 256.65 109.93 C 256.70 110.65 256.81 112.09 256.86 112.81 C 256.52 113.30 255.85 114.27 255.51 114.75 C 257.31 114.95 258.42 116.05 259.00 117.70 C 260.58 117.28 262.10 116.49 263.81 116.51 C 263.55 115.70 263.30 114.89 263.06 114.09 C 263.67 113.48 264.29 112.88 264.92 112.28 C 263.19 111.64 261.70 110.64 261.47 108.63 C 260.80 109.32 260.14 110.01 259.47 110.69 M 246.06 112.13 C 245.58 113.77 246.15 114.31 247.76 113.75 C 248.23 112.11 247.67 111.56 246.06 112.13 M 186.16 114.15 C 184.95 115.61 187.57 117.18 188.57 115.80 C 189.76 114.33 187.17 112.78 186.16 114.15 M 211.31 115.45 C 209.83 118.55 209.50 122.05 208.45 125.30 C 206.09 122.16 206.40 117.09 202.64 115.19 C 203.09 118.32 204.14 121.31 205.13 124.31 C 202.59 122.40 200.40 120.01 197.55 118.54 C 197.80 121.91 201.13 123.62 203.07 126.02 C 200.16 125.24 197.24 124.53 194.34 123.70 C 195.38 127.86 201.00 126.84 203.76 129.46 C 200.66 130.86 196.72 131.15 194.65 134.18 C 197.73 134.01 200.68 133.04 203.67 132.35 C 201.86 134.48 200.21 136.73 198.74 139.10 C 202.04 138.88 203.59 135.44 206.01 133.63 C 205.38 137.08 204.60 140.52 204.21 144.02 C 207.93 142.76 206.82 137.49 208.30 134.46 C 210.61 136.72 209.51 141.45 213.14 142.30 C 212.54 139.62 212.22 136.86 211.38 134.24 C 213.60 136.15 215.96 137.89 218.44 139.47 C 218.42 135.99 214.54 134.42 212.70 131.86 C 216.33 132.33 219.90 133.41 223.59 133.24 C 221.56 129.70 216.47 131.13 213.25 129.44 C 213.23 129.21 213.20 128.77 213.19 128.54 C 215.95 126.93 220.14 127.12 221.60 123.83 C 218.67 124.42 215.78 125.20 212.93 126.09 C 214.97 123.50 217.94 121.51 218.94 118.23 C 215.60 119.10 213.77 122.25 211.10 124.17 C 211.93 121.01 212.72 117.83 213.11 114.58 C 212.66 114.80 211.76 115.23 211.31 115.45 M 226.00 118.56 C 225.60 119.96 226.09 120.43 227.47 119.98 C 227.89 118.55 227.39 118.08 226.00 118.56 M 242.95 120.19 C 242.90 120.97 242.80 122.54 242.75 123.32 C 242.14 123.51 240.93 123.90 240.32 124.09 C 239.80 125.39 241.93 125.40 242.60 126.08 C 242.54 127.34 242.47 128.59 242.42 129.85 C 243.88 127.47 245.86 128.83 247.24 130.30 C 247.26 129.55 247.32 128.06 247.35 127.31 C 248.05 127.15 249.44 126.82 250.14 126.66 C 251.31 125.30 248.20 124.98 247.50 124.14 C 247.76 123.20 248.27 121.33 248.53 120.40 C 247.49 120.85 246.45 121.30 245.42 121.75 C 244.80 121.36 243.57 120.58 242.95 120.19 M 230.22 122.22 C 229.73 123.86 230.29 124.41 231.90 123.88 C 232.39 122.23 231.83 121.68 230.22 122.22 M 257.07 123.11 C 256.53 124.72 257.08 125.27 258.73 124.75 C 259.26 123.13 258.71 122.59 257.07 123.11 M 260.89 123.23 C 260.42 124.87 260.99 125.41 262.58 124.83 C 263.05 123.16 262.49 122.63 260.89 123.23 M 272.28 130.17 C 272.79 131.71 272.89 133.26 271.44 134.34 C 272.33 135.19 273.22 136.04 274.11 136.90 C 275.44 136.70 276.79 136.50 278.13 136.30 C 278.47 135.07 278.87 133.85 279.33 132.66 C 278.60 131.54 277.85 130.43 277.10 129.33 C 275.63 130.28 273.97 130.36 272.28 130.17 M 229.31 131.15 C 228.15 132.61 230.74 134.20 231.72 132.75 C 232.87 131.27 230.30 129.70 229.31 131.15 M 185.19 133.30 C 184.78 134.94 185.37 135.47 186.97 134.89 C 187.39 133.25 186.79 132.72 185.19 133.30 M 181.39 137.34 C 180.93 138.99 181.50 139.53 183.10 138.94 C 183.56 137.30 182.98 136.77 181.39 137.34 M 247.95 150.46 C 247.57 147.00 247.77 143.46 246.95 140.06 L 246.06 140.38 C 244.87 143.37 245.75 146.85 245.47 150.03 C 244.02 147.12 243.11 143.99 241.77 141.04 C 241.25 140.85 240.23 140.48 239.71 140.30 C 240.56 144.28 242.40 147.97 243.06 152.00 C 240.35 149.03 238.06 145.62 234.69 143.32 C 234.39 146.85 237.91 148.87 239.53 151.62 C 236.69 150.56 233.99 149.16 231.11 148.20 C 232.76 152.48 238.29 152.95 241.51 155.82 C 236.74 155.82 231.96 155.56 227.20 155.97 C 227.52 156.32 228.15 157.01 228.47 157.36 C 232.58 158.12 236.82 157.72 240.97 158.19 C 237.53 160.93 231.69 160.68 229.75 165.07 C 233.04 164.20 236.19 162.88 239.40 161.77 C 237.40 164.35 235.02 166.63 233.28 169.41 L 235.07 169.41 C 237.95 167.33 240.02 164.33 242.82 162.13 C 241.50 166.23 239.59 170.12 238.30 174.23 C 237.78 175.19 237.64 177.85 239.30 176.41 C 241.84 172.02 242.93 166.94 245.63 162.63 C 246.05 167.15 245.90 171.70 246.29 176.23 C 246.67 175.93 247.44 175.34 247.82 175.05 C 248.22 171.28 247.85 167.47 248.19 163.70 C 250.79 167.55 251.01 172.62 254.31 176.03 C 254.95 172.36 252.48 169.15 251.84 165.65 C 254.95 167.94 256.93 171.96 260.93 172.82 C 258.66 167.80 253.34 165.13 250.80 160.26 C 256.06 162.53 261.07 165.70 266.86 166.36 C 264.24 162.15 258.12 162.65 254.63 159.26 C 258.87 159.22 263.13 159.39 267.37 159.00 C 267.07 158.64 266.47 157.94 266.17 157.59 C 261.76 156.80 257.16 157.38 252.70 156.75 C 256.54 153.82 262.10 153.71 265.24 149.94 C 260.10 150.11 255.80 153.34 250.83 154.28 C 253.00 151.13 257.41 149.15 257.63 145.01 C 255.41 146.57 253.34 148.32 251.34 150.14 C 252.63 146.17 255.85 142.85 256.19 138.64 L 254.99 138.63 C 251.93 142.13 250.94 146.91 247.95 150.46 M 304.35 150.46 C 296.30 157.61 290.63 167.05 285.31 176.31 C 274.78 195.42 266.67 215.75 259.58 236.34 C 254.09 226.61 244.79 219.77 234.71 215.35 C 216.89 207.39 197.30 204.48 177.97 203.11 C 175.64 203.08 173.07 202.50 170.96 203.79 C 156.36 212.23 141.72 220.60 127.12 229.04 C 128.29 229.96 129.46 230.90 130.61 231.85 C 129.80 231.93 128.17 232.10 127.36 232.18 C 127.73 234.22 128.13 236.25 128.55 238.29 C 127.01 238.32 125.48 238.32 123.95 238.31 C 122.96 240.08 122.79 242.13 122.58 244.11 C 128.74 244.09 134.90 244.20 141.06 244.35 C 139.52 245.43 137.98 246.50 136.46 247.59 C 130.61 250.94 125.10 254.83 119.36 258.36 C 118.87 260.66 119.58 263.70 117.26 265.16 C 110.90 270.34 104.30 275.22 98.08 280.58 C 145.70 279.70 193.32 279.29 240.94 278.56 C 241.56 279.71 242.20 280.87 242.83 282.02 C 302.89 281.92 362.95 282.12 423.01 281.92 C 418.57 278.70 413.41 276.49 409.47 272.61 C 407.47 270.80 404.91 269.76 402.43 268.81 C 403.37 268.02 404.33 267.27 405.33 266.55 C 397.04 262.19 388.86 257.62 380.60 253.20 C 386.73 252.02 393.02 252.07 399.23 251.39 C 398.11 250.56 396.97 249.77 395.78 249.07 C 384.31 242.93 372.93 236.64 361.53 230.38 C 359.22 229.01 356.48 228.87 353.89 228.53 C 346.23 227.65 338.60 226.59 330.95 225.64 C 329.15 225.58 326.69 224.78 325.72 226.88 C 333.79 228.26 341.94 229.05 350.06 230.13 C 353.82 230.72 357.91 230.53 361.26 232.61 C 371.41 238.28 381.65 243.78 391.81 249.43 C 382.88 249.52 373.84 252.33 365.03 249.76 C 365.03 248.51 365.02 247.26 365.02 246.02 C 369.06 243.40 373.50 247.01 377.86 245.86 C 377.66 245.31 377.25 244.21 377.05 243.66 C 373.24 243.63 368.81 240.98 365.53 243.88 C 364.89 243.85 363.61 243.78 362.97 243.75 C 362.17 241.70 361.36 239.66 360.57 237.62 C 359.50 238.41 358.71 239.47 358.06 240.62 C 355.43 240.19 352.70 239.89 350.16 240.91 C 348.69 240.95 346.30 242.23 345.82 239.90 C 345.35 237.20 341.76 240.61 343.60 242.10 C 343.21 242.45 342.42 243.13 342.02 243.48 C 340.73 242.87 339.47 242.22 338.19 241.63 C 334.16 239.46 329.34 240.48 324.97 240.39 C 321.87 238.47 318.80 236.51 315.70 234.59 C 314.83 235.75 313.99 236.97 312.80 237.84 C 311.26 237.50 310.24 236.14 308.96 235.34 C 306.87 234.62 305.80 235.53 306.36 237.94 C 305.20 237.42 304.10 236.80 303.04 236.10 L 302.36 234.25 L 302.12 235.30 C 300.58 234.14 298.31 236.78 299.59 238.18 C 296.67 240.35 294.92 243.61 292.67 246.39 C 291.18 245.70 287.96 245.44 287.29 247.13 C 287.15 247.62 286.87 248.60 286.73 249.08 C 289.57 249.35 294.34 250.74 294.94 246.70 C 297.27 244.19 299.24 241.37 301.64 238.93 C 302.11 239.97 302.60 241.02 303.08 242.07 C 304.38 241.08 305.85 239.33 306.88 241.73 C 307.82 240.81 308.76 239.88 309.68 238.93 C 309.94 240.00 310.24 241.06 310.60 242.11 C 312.54 240.95 314.39 239.62 315.98 238.00 C 319.07 239.72 322.08 241.55 325.04 243.47 C 327.99 243.05 331.00 242.40 333.98 242.96 C 336.81 243.43 339.25 245.07 341.96 245.92 C 343.49 245.50 343.94 243.51 345.33 242.92 C 348.93 243.72 352.57 242.75 356.18 242.55 C 356.60 242.83 357.45 243.38 357.87 243.66 L 358.30 242.65 C 359.50 241.94 360.93 242.28 361.53 243.59 C 361.68 245.58 362.00 247.56 362.76 249.42 C 353.22 248.04 343.64 246.47 333.97 246.64 C 323.83 245.89 313.75 247.32 303.69 248.29 C 303.67 249.60 302.92 251.05 301.49 251.19 L 301.96 249.13 C 300.05 249.59 297.97 249.55 296.20 250.45 L 294.18 249.52 C 294.20 250.06 294.23 251.13 294.24 251.66 C 290.47 251.34 287.04 253.19 283.71 254.66 C 276.75 258.19 270.06 262.95 265.98 269.74 C 273.75 260.38 285.15 255.03 296.75 252.12 C 297.27 252.05 298.31 251.90 298.83 251.83 C 300.72 251.75 302.62 251.71 304.52 251.73 L 304.46 250.77 C 323.12 247.83 342.17 248.47 360.90 250.43 C 363.30 250.21 364.57 252.42 365.61 254.21 C 365.52 253.38 365.34 251.73 365.25 250.90 C 368.65 251.33 372.30 251.12 375.42 252.78 C 383.83 257.29 392.14 262.02 400.64 266.37 C 399.38 267.23 398.36 268.41 397.00 269.09 C 400.28 270.55 403.83 271.46 406.98 273.22 C 409.70 275.25 412.14 277.66 414.99 279.54 C 366.70 279.33 318.39 279.62 270.10 279.40 C 266.44 278.09 263.20 275.07 258.99 275.68 C 253.50 275.26 249.53 280.49 243.99 279.53 C 243.49 278.43 242.99 277.34 242.50 276.26 C 196.70 276.46 150.90 277.43 105.10 277.73 C 110.46 273.48 115.84 269.25 121.16 264.94 C 121.33 263.25 121.37 261.53 121.77 259.88 C 127.17 255.61 133.40 252.51 138.86 248.31 C 142.14 246.25 145.37 244.08 148.87 242.39 C 152.46 243.04 156.12 243.10 159.74 242.64 C 163.72 243.57 167.92 242.55 171.96 243.27 C 178.25 244.40 184.65 244.11 190.98 244.84 C 191.02 244.21 191.10 242.94 191.14 242.31 C 181.48 241.14 171.72 240.46 161.99 241.02 C 160.70 241.19 159.43 241.49 158.20 241.92 C 156.87 241.56 155.45 241.83 154.09 241.82 C 149.67 242.24 145.43 240.34 141.01 240.88 C 136.06 241.28 131.11 240.92 126.16 240.90 C 126.31 240.37 126.62 239.31 126.77 238.79 C 128.41 239.14 129.96 239.80 131.54 240.39 C 131.22 238.19 130.91 236.00 130.66 233.80 C 131.51 233.78 133.21 233.75 134.06 233.74 C 134.90 233.67 136.58 233.55 137.43 233.49 C 140.40 233.82 143.37 234.21 146.31 234.78 C 146.05 235.09 145.55 235.70 145.30 236.00 C 141.76 235.78 138.20 235.76 134.71 236.43 C 137.91 237.16 141.24 237.46 144.50 236.92 C 146.82 237.05 149.14 237.17 151.46 237.16 C 153.23 237.76 155.09 238.11 156.97 238.07 C 165.77 237.98 174.51 239.47 183.30 239.58 C 194.46 241.35 205.59 243.34 216.60 245.93 C 222.59 248.33 228.90 249.87 235.02 251.93 C 229.65 249.49 224.21 246.52 218.47 245.39 C 212.89 243.02 206.99 241.45 201.08 240.14 C 195.40 238.27 189.37 237.49 183.41 237.45 C 181.60 237.26 179.79 237.18 177.99 237.08 L 177.80 236.44 C 172.58 233.73 166.76 231.96 160.84 232.02 C 160.45 231.99 159.67 231.92 159.28 231.88 C 151.55 230.52 143.66 231.30 135.92 232.07 C 134.69 230.88 133.08 230.22 131.54 229.52 C 133.76 227.58 136.48 226.37 139.00 224.89 C 149.78 218.64 160.65 212.54 171.41 206.26 C 173.37 204.92 175.81 205.23 178.05 205.37 C 194.44 206.58 210.89 208.97 226.45 214.39 C 236.34 217.92 246.19 222.74 253.22 230.76 C 256.17 234.31 258.87 238.43 259.60 243.06 C 258.74 251.58 256.41 260.96 260.48 269.01 C 264.67 258.12 270.00 247.72 274.88 237.13 C 271.97 244.45 269.08 251.99 269.23 260.00 C 268.15 261.63 267.07 263.28 266.07 264.97 C 269.29 261.86 271.69 258.04 274.76 254.80 C 282.83 245.42 291.73 236.77 301.30 228.92 C 303.72 227.12 307.10 225.52 306.87 221.95 C 304.59 223.43 302.47 225.13 300.22 226.65 L 300.27 226.76 C 292.37 232.96 285.18 240.06 278.69 247.72 C 275.99 251.25 272.84 254.49 270.91 258.55 C 270.43 257.93 269.97 257.30 269.52 256.68 C 275.93 236.95 287.87 219.74 297.41 201.49 C 298.72 198.17 302.04 196.60 304.85 194.78 C 313.87 189.04 322.79 183.15 331.81 177.41 C 343.94 180.11 356.12 182.62 368.25 185.29 C 359.44 191.19 350.45 196.82 341.58 202.63 C 337.25 205.57 332.26 207.23 327.59 209.50 C 321.00 212.65 314.67 216.34 308.54 220.31 C 307.96 221.49 307.36 222.67 306.74 223.83 C 309.66 225.15 312.92 225.08 316.00 225.74 C 318.88 226.44 321.87 226.25 324.80 226.40 L 324.72 225.29 C 321.36 224.47 317.94 223.90 314.48 223.90 C 314.80 223.51 315.43 222.74 315.75 222.35 L 315.52 222.37 C 317.06 221.73 318.45 220.78 319.85 219.87 C 337.94 207.93 356.27 196.37 374.28 184.31 C 359.88 181.20 345.44 178.28 331.04 175.20 C 321.97 181.06 313.02 187.10 303.90 192.87 C 313.73 176.57 323.96 160.51 333.80 144.22 C 323.97 146.24 314.10 148.11 304.35 150.46 M 184.46 146.20 C 183.60 147.30 182.46 148.23 181.92 149.55 C 182.52 149.84 183.71 150.42 184.30 150.71 C 184.17 151.74 183.90 153.80 183.77 154.82 C 184.38 154.37 185.61 153.48 186.23 153.03 C 187.05 153.35 187.87 153.67 188.69 153.99 C 188.67 153.27 188.62 151.83 188.59 151.11 C 189.50 150.49 190.45 149.91 191.42 149.39 C 190.02 148.70 188.38 148.03 188.42 146.20 C 187.10 146.14 185.77 146.16 184.46 146.20 M 196.29 146.99 C 195.82 148.65 196.39 149.19 198.00 148.62 C 198.46 146.98 197.89 146.43 196.29 146.99 M 221.15 147.10 C 220.67 148.74 221.24 149.27 222.87 148.71 C 223.33 147.08 222.76 146.54 221.15 147.10 M 206.14 150.00 C 206.30 153.36 209.10 148.43 206.14 150.00 M 200.18 152.98 C 199.67 154.62 200.23 155.17 201.87 154.63 C 202.35 153.00 201.79 152.45 200.18 152.98 M 220.09 153.36 C 218.49 156.29 223.45 153.56 220.09 153.36 M 208.29 157.13 C 208.16 157.74 207.89 158.96 207.75 159.57 C 206.95 159.61 205.35 159.67 204.55 159.70 C 205.11 161.19 206.68 161.62 207.91 162.32 C 207.65 163.57 207.38 164.82 207.10 166.07 C 208.03 165.55 209.01 165.19 210.06 165.00 C 210.52 165.28 211.45 165.84 211.92 166.12 C 212.10 165.52 212.46 164.31 212.65 163.71 C 213.28 163.55 214.55 163.23 215.19 163.07 C 215.91 161.39 213.08 161.45 212.23 160.59 C 212.45 159.70 212.68 158.81 212.90 157.92 C 212.20 158.04 210.81 158.28 210.11 158.40 C 209.66 158.08 208.75 157.45 208.29 157.13 M 223.30 164.25 C 223.82 164.71 223.82 164.71 223.30 164.25 M 264.56 176.05 C 264.51 179.41 267.61 174.67 264.56 176.05 M 259.13 179.16 C 258.92 179.43 258.51 179.97 258.31 180.23 C 259.18 183.39 262.53 178.77 259.13 179.16 M 216.27 180.11 C 216.45 183.46 219.23 178.53 216.27 180.11 M 238.31 182.16 C 237.81 183.81 238.37 184.36 239.98 183.79 C 240.46 182.15 239.90 181.61 238.31 182.16 M 232.22 183.13 C 231.73 184.77 232.29 185.31 233.92 184.76 C 234.39 183.12 233.82 182.58 232.22 183.13 M 244.22 186.85 C 244.93 187.98 245.60 189.12 246.23 190.30 C 247.37 190.43 248.53 190.52 249.69 190.56 C 250.34 189.56 251.08 188.58 251.47 187.43 C 251.41 186.02 250.14 185.01 249.52 183.85 C 248.86 183.90 247.56 184.01 246.91 184.06 C 246.01 184.99 245.12 185.92 244.22 186.85 M 262.51 186.57 C 262.59 187.31 262.74 188.78 262.81 189.52 C 262.01 189.65 260.40 189.93 259.59 190.07 C 260.23 191.42 261.71 191.71 262.93 192.28 C 262.90 192.98 262.85 194.37 262.82 195.07 C 264.36 195.02 265.90 194.93 267.44 194.80 C 267.85 192.96 269.24 191.43 271.10 190.98 C 269.67 190.64 268.26 190.23 266.87 189.73 C 266.91 188.54 266.94 187.36 266.98 186.18 C 266.48 186.34 265.49 186.68 264.99 186.85 C 264.16 186.75 263.34 186.65 262.51 186.57 M 323.04 186.33 C 321.63 189.20 322.91 193.00 320.49 195.35 C 319.08 193.13 317.60 190.96 316.07 188.83 C 316.68 191.20 317.36 193.56 318.08 195.90 C 316.80 196.24 315.50 196.51 314.27 197.03 C 311.76 201.10 308.62 204.70 306.13 208.82 C 305.43 208.03 304.61 207.50 303.68 207.21 C 303.60 207.79 303.46 208.96 303.38 209.55 C 302.76 209.64 301.51 209.82 300.89 209.91 L 301.83 210.02 C 301.14 211.55 300.84 213.33 299.68 214.60 C 298.76 214.53 297.86 214.42 296.96 214.28 C 296.88 216.54 296.62 218.80 296.01 220.99 C 294.28 220.63 292.54 220.31 290.80 220.03 C 289.84 223.26 288.23 226.21 286.75 229.21 C 287.13 229.62 287.90 230.44 288.29 230.85 C 290.07 228.47 291.54 225.87 292.98 223.27 C 294.31 223.22 295.64 223.17 296.98 223.13 C 297.72 222.35 298.46 221.57 299.21 220.80 L 298.93 219.66 C 300.49 219.37 300.81 218.53 299.90 217.12 C 300.49 216.64 301.67 215.67 302.25 215.19 C 303.58 215.88 304.84 216.82 305.45 218.24 C 305.68 215.99 305.60 213.65 306.29 211.49 C 307.42 210.55 308.77 209.87 309.80 208.80 C 311.48 206.76 312.27 203.76 315.08 202.95 C 315.49 201.67 315.92 200.40 316.39 199.14 C 318.87 198.55 321.49 198.02 323.56 196.42 C 325.23 195.17 324.59 192.83 324.94 191.05 C 326.93 190.79 328.89 190.26 330.65 189.23 C 330.34 191.57 331.07 194.37 328.97 196.10 C 328.53 195.55 327.65 194.45 327.21 193.90 C 327.53 198.11 324.01 200.76 322.07 204.06 C 320.57 204.20 318.87 203.71 317.54 204.59 C 315.87 206.01 315.83 208.38 315.35 210.35 C 317.48 210.46 318.29 208.74 319.08 207.15 C 320.51 206.89 322.24 207.43 323.49 206.51 C 324.98 204.83 326.01 202.80 327.39 201.03 C 328.63 201.69 329.22 203.05 330.09 204.09 C 329.81 202.27 329.58 200.45 329.39 198.62 C 331.52 196.70 333.91 194.99 336.94 195.27 C 337.26 194.74 337.90 193.68 338.22 193.15 C 338.80 193.05 339.98 192.84 340.57 192.74 C 340.67 192.05 340.87 190.68 340.97 189.99 C 339.29 189.54 337.75 188.69 336.08 188.25 C 336.05 188.72 335.99 189.66 335.97 190.13 C 335.57 189.68 334.78 188.78 334.39 188.33 C 333.90 189.51 333.22 190.57 332.38 191.53 C 331.85 190.11 331.36 188.71 330.87 187.29 C 330.25 187.26 329.00 187.20 328.38 187.18 C 327.78 187.49 326.60 188.12 326.00 188.44 C 325.01 187.73 324.03 187.03 323.04 186.33 M 236.17 188.36 C 235.65 189.98 236.20 190.53 237.82 190.01 C 238.36 188.37 237.81 187.82 236.17 188.36 M 255.46 196.17 C 254.95 197.83 255.50 198.38 257.11 197.84 C 257.60 196.20 257.05 195.65 255.46 196.17 M 257.27 199.22 C 256.75 200.85 257.30 201.41 258.92 200.88 C 259.44 199.24 258.89 198.69 257.27 199.22 M 232.24 201.15 C 231.73 202.79 232.30 203.34 233.92 202.79 C 234.41 201.16 233.85 200.61 232.24 201.15 M 265.23 201.22 C 265.78 201.72 265.78 201.72 265.23 201.22 M 247.56 202.11 C 246.99 203.44 245.85 204.27 244.68 205.04 C 245.10 205.53 245.93 206.52 246.35 207.01 C 246.27 207.69 246.11 209.03 246.04 209.71 C 247.67 209.20 249.34 209.20 250.91 209.95 C 251.71 208.79 252.61 207.71 253.60 206.72 C 252.44 205.59 251.28 204.39 251.86 202.60 C 250.42 202.39 248.99 202.24 247.56 202.11 M 181.92 210.22 C 181.99 210.79 182.11 211.93 182.18 212.50 C 185.82 211.84 188.16 215.86 191.91 214.68 L 191.72 214.59 L 192.46 214.18 C 193.16 213.79 194.57 213.00 195.27 212.60 C 195.67 213.33 196.10 214.06 196.55 214.78 L 196.59 215.26 C 198.17 216.42 200.82 217.14 200.69 219.58 L 199.97 219.46 C 199.81 219.84 199.49 220.59 199.33 220.97 C 199.96 221.96 202.87 221.94 202.36 220.40 C 203.05 220.19 204.44 219.75 205.13 219.54 C 206.10 219.95 207.09 220.31 208.07 220.72 L 208.38 220.46 C 209.08 220.89 210.46 221.75 211.16 222.18 C 215.48 222.28 219.80 222.55 223.96 223.83 C 227.03 225.50 230.15 227.07 233.33 228.52 C 234.31 229.72 235.22 231.30 237.05 230.62 C 239.12 229.91 240.42 231.51 241.36 233.09 C 239.66 234.20 242.31 237.10 243.22 235.06 L 243.04 234.40 C 244.71 230.03 240.12 227.04 236.23 227.49 C 232.15 225.73 228.46 222.81 224.10 221.88 C 221.49 220.88 218.79 219.99 215.96 220.02 C 214.07 219.84 211.83 220.32 210.52 218.57 C 209.80 217.99 209.06 217.42 208.33 216.87 L 207.72 217.39 C 206.78 217.32 204.91 217.17 203.97 217.10 C 201.30 215.51 198.75 213.72 196.28 211.85 L 198.07 211.52 C 195.78 210.13 193.28 210.50 190.99 211.65 C 190.57 211.89 189.73 212.36 189.31 212.60 C 188.85 212.00 187.94 210.79 187.48 210.19 C 185.63 210.20 183.77 210.19 181.92 210.22 M 163.10 213.73 C 162.75 214.24 162.07 215.26 161.73 215.76 C 168.65 220.16 176.90 222.46 185.10 221.70 C 187.36 221.30 189.78 221.81 190.88 224.06 C 191.19 224.11 191.82 224.22 192.13 224.27 C 197.30 227.93 203.97 228.79 210.16 228.92 L 210.27 229.82 L 211.23 230.30 L 212.03 229.84 C 213.61 230.36 215.24 230.70 216.88 231.03 C 219.21 231.88 221.53 232.98 224.07 233.01 L 224.20 233.93 L 225.17 234.40 L 225.96 233.94 L 226.52 234.18 C 229.81 235.90 233.27 237.29 236.92 238.08 L 237.13 238.30 C 238.29 239.13 239.48 239.93 240.67 240.73 C 241.12 240.32 242.02 239.49 242.47 239.07 C 241.78 238.52 241.09 237.97 240.39 237.42 C 238.80 236.63 237.30 235.57 235.60 235.06 C 232.83 232.82 229.30 232.14 226.09 230.80 L 225.57 231.15 C 217.38 227.86 208.60 226.64 200.00 224.88 C 197.67 224.45 195.48 223.54 193.34 222.57 C 191.74 220.18 188.90 218.50 185.96 219.16 C 177.97 220.21 169.80 218.13 163.10 213.73 M 166.70 230.21 C 173.87 228.66 181.03 231.07 188.01 232.53 C 195.00 234.01 201.89 235.95 208.92 237.23 C 215.66 239.69 222.84 241.41 230.06 241.50 L 230.59 242.59 C 230.02 244.19 232.97 244.64 233.78 243.59 C 234.12 244.28 234.81 245.65 235.16 246.34 C 235.35 246.67 235.74 247.33 235.93 247.65 C 236.45 247.49 237.50 247.17 238.02 247.01 C 239.69 247.43 240.79 249.15 242.62 249.13 L 242.51 249.42 C 243.20 250.18 243.84 251.02 244.60 251.73 L 244.57 252.26 C 245.83 253.39 246.87 255.55 248.92 254.93 C 249.56 253.15 247.94 252.12 246.87 251.03 C 245.18 247.87 245.59 244.20 245.43 240.75 C 244.70 243.08 243.94 245.39 243.13 247.69 C 242.33 246.73 241.52 245.80 240.70 244.88 C 239.98 244.68 238.56 244.28 237.84 244.09 C 237.59 243.76 237.09 243.11 236.84 242.78 L 236.06 243.25 C 235.60 241.49 233.90 240.86 232.36 240.39 C 231.53 239.28 230.73 238.14 229.96 237.00 C 228.43 237.78 226.93 239.11 225.11 238.37 C 219.12 237.05 213.18 235.52 207.17 234.29 C 201.50 232.44 195.67 231.00 189.75 230.24 C 183.96 228.66 178.05 227.40 172.07 226.81 C 169.71 226.64 165.43 226.66 166.70 230.21 M 309.32 230.77 C 309.74 231.10 310.57 231.75 310.99 232.08 C 312.05 231.47 313.10 230.86 314.17 230.25 C 315.90 231.35 317.54 233.39 319.81 233.03 C 320.46 232.43 321.76 231.25 322.41 230.65 C 321.76 233.25 324.03 232.37 325.24 232.42 C 325.75 232.55 326.76 232.81 327.27 232.93 C 327.54 233.47 328.08 234.54 328.35 235.07 C 330.11 234.65 330.71 233.01 331.17 231.44 C 331.69 231.93 332.73 232.91 333.25 233.40 C 333.48 233.92 333.94 234.95 334.17 235.46 C 338.80 234.53 343.40 236.15 348.05 235.76 C 349.35 236.47 350.66 237.20 351.95 237.93 C 351.84 237.40 351.63 236.34 351.52 235.81 C 352.32 235.81 353.92 235.83 354.72 235.84 L 354.97 236.42 C 356.58 237.71 358.07 234.16 356.01 234.05 L 354.62 234.31 C 355.35 232.67 351.80 232.26 352.31 234.04 L 351.06 233.44 L 349.54 234.03 L 349.89 233.63 C 346.79 233.57 343.62 233.01 340.57 233.60 L 339.15 233.29 C 336.77 232.48 334.27 231.97 332.08 230.69 C 331.55 229.72 330.72 229.20 329.59 229.15 C 328.70 229.75 327.90 230.46 327.20 231.27 C 326.66 230.04 326.10 228.82 325.54 227.61 C 324.94 228.50 324.35 229.41 323.79 230.34 C 323.27 230.40 322.24 230.53 321.72 230.59 C 322.76 227.95 318.46 228.01 318.97 230.59 L 318.03 230.41 C 317.14 229.11 315.94 227.27 314.08 227.83 C 312.25 228.35 310.83 229.68 309.32 230.77 M 191.43 245.01 C 193.77 245.27 196.11 245.63 198.47 245.74 C 198.17 248.98 203.01 245.66 199.19 245.58 C 197.20 244.97 195.24 244.31 193.30 243.57 C 192.67 244.03 192.04 244.51 191.43 245.01 M 144.98 252.67 C 164.30 250.99 183.74 248.46 203.14 250.54 C 221.53 252.07 239.79 257.95 254.77 268.91 C 251.34 265.71 247.78 262.56 243.59 260.40 C 231.97 254.28 219.19 250.43 206.17 248.83 C 201.89 247.07 197.23 248.26 192.77 248.40 C 189.28 247.43 185.64 247.68 182.07 247.80 C 169.60 248.48 157.21 250.15 144.98 252.67 M 304.90 254.84 C 304.53 255.11 303.80 255.64 303.44 255.91 C 302.85 255.82 301.68 255.66 301.10 255.58 C 290.84 257.49 280.66 261.60 273.09 268.97 C 282.77 262.03 294.32 258.34 306.00 256.58 C 325.38 254.61 345.00 256.11 364.05 260.04 C 370.62 261.21 377.03 263.10 383.62 264.16 C 381.86 265.73 379.58 265.05 377.51 264.66 C 362.58 261.31 347.27 260.20 332.03 259.26 C 316.55 259.00 300.70 259.59 285.99 264.90 C 279.98 267.27 273.87 270.28 269.94 275.61 C 282.78 264.41 300.75 262.71 317.06 261.96 C 339.13 260.76 361.04 264.16 382.97 265.80 C 384.55 266.81 386.38 266.51 387.86 265.48 C 389.52 265.91 391.20 266.34 392.87 266.76 C 385.46 263.70 377.72 261.59 370.00 259.51 C 348.84 254.09 326.60 251.26 304.90 254.84 M 176.91 257.62 C 175.40 256.93 173.71 257.26 172.12 257.33 C 158.63 258.47 145.15 260.37 132.04 263.79 C 168.41 258.57 206.34 255.89 241.97 266.80 C 227.77 260.83 212.41 258.04 197.10 257.08 C 195.80 256.95 194.47 256.97 193.30 257.63 C 187.92 256.43 182.30 256.55 176.91 257.62 M 302.98 266.18 C 293.91 267.99 284.66 270.47 277.02 275.88 C 298.31 265.38 322.85 265.83 345.86 268.67 C 356.30 269.84 366.41 273.13 376.93 273.67 C 384.62 274.10 392.55 274.68 400.01 272.33 C 385.97 274.10 371.77 271.64 358.14 268.36 C 340.05 264.72 321.27 263.01 302.98 266.18 M 147.76 270.45 C 172.75 272.86 197.93 273.49 223.02 272.57 C 228.36 272.25 233.87 272.35 238.92 270.32 C 236.99 270.71 235.03 271.10 233.05 271.07 C 204.62 270.87 176.18 269.58 147.76 270.45 M 61.81 305.32 C 67.40 305.97 72.31 309.64 74.25 314.95 C 73.50 324.35 72.24 333.74 71.10 343.10 C 71.04 345.45 68.57 345.97 66.90 346.90 C 70.26 347.02 73.64 347.04 76.99 346.65 C 76.23 346.43 74.72 346.00 73.96 345.78 C 74.29 336.77 75.24 327.78 76.23 318.82 C 80.83 328.49 84.95 338.40 89.83 347.92 C 93.60 337.89 98.13 328.14 102.69 318.45 C 103.79 325.93 104.70 333.43 105.81 340.91 C 106.42 345.73 108.55 350.52 112.42 353.59 C 115.70 356.07 120.11 356.62 124.03 355.59 C 121.47 355.12 118.68 355.07 116.50 353.47 C 112.34 350.76 110.46 345.80 109.70 341.09 C 107.94 330.61 106.52 320.07 104.64 309.60 C 99.49 319.88 95.13 330.55 90.42 341.04 C 85.52 331.64 81.71 321.71 76.78 312.33 C 73.91 307.02 67.75 304.10 61.81 305.32 M 136.87 309.83 C 132.70 320.80 127.88 331.50 123.40 342.34 C 122.65 344.96 120.18 346.05 117.84 346.89 C 121.55 347.04 125.27 347.09 128.96 346.65 C 128.21 346.43 126.72 345.98 125.97 345.76 C 126.03 341.69 128.22 338.15 129.51 334.40 C 134.19 334.38 138.88 334.38 143.57 334.40 C 144.71 337.95 146.69 341.30 147.02 345.05 C 146.26 345.95 145.07 346.27 144.09 346.84 C 148.11 347.02 152.14 347.15 156.15 346.69 C 154.41 345.98 152.20 345.58 151.46 343.59 C 146.28 332.48 142.37 320.78 136.87 309.83 M 170.37 313.31 C 162.41 319.03 161.07 331.03 165.75 339.23 C 171.85 349.77 188.71 350.63 196.42 341.53 C 197.40 338.21 196.69 334.49 197.03 331.02 C 198.04 330.48 199.06 329.97 200.07 329.44 C 196.71 329.58 193.35 329.60 190.00 329.30 C 191.06 329.88 192.13 330.44 193.15 331.10 C 193.94 334.67 193.39 338.35 193.43 341.96 C 187.84 346.30 179.42 347.97 173.42 343.50 C 166.06 337.78 165.37 326.41 169.48 318.56 C 173.26 311.22 183.56 309.43 190.21 313.80 C 192.79 315.46 194.10 318.38 195.54 320.97 C 195.17 318.44 194.84 315.89 194.46 313.36 C 187.28 309.09 177.39 308.30 170.37 313.31 M 209.05 310.40 C 210.76 311.52 213.52 312.35 213.06 314.94 C 213.12 324.30 213.20 333.68 213.02 343.04 C 213.32 345.52 210.69 346.10 208.92 346.73 C 212.95 347.08 216.98 347.06 221.01 346.75 C 219.12 346.07 216.24 345.69 216.59 342.98 C 216.47 333.69 216.51 324.39 216.57 315.10 C 216.09 312.32 218.86 311.40 220.85 310.47 C 216.92 310.62 212.98 310.61 209.05 310.40 M 239.41 312.44 C 228.04 319.01 227.92 338.02 239.02 344.90 C 246.51 349.55 257.94 348.77 263.26 341.20 C 264.84 338.36 264.33 334.95 264.62 331.84 C 263.49 335.14 262.98 338.84 260.59 341.54 C 254.79 348.14 242.67 347.65 237.93 340.03 C 233.37 332.72 233.47 321.97 239.51 315.50 C 246.28 308.34 260.62 310.95 262.84 321.13 C 262.74 318.44 262.52 315.76 261.98 313.13 C 255.15 309.41 246.33 308.46 239.41 312.44 M 292.09 310.43 C 293.95 311.45 296.66 312.30 296.24 315.00 C 296.31 324.86 296.36 334.74 296.18 344.60 C 292.04 342.76 290.98 338.29 289.12 334.62 C 289.23 339.00 290.85 343.78 295.02 345.85 C 300.83 348.71 308.35 348.44 313.78 344.81 C 318.84 341.59 319.56 333.74 315.49 329.45 C 313.63 327.31 310.82 326.51 308.21 325.76 C 312.47 323.04 313.25 316.14 309.06 313.00 C 304.19 309.28 297.73 311.01 292.09 310.43 M 340.47 310.57 C 334.34 312.07 328.97 316.83 327.32 322.99 C 325.95 328.24 326.32 334.16 329.16 338.87 C 335.15 348.75 349.81 350.34 358.99 344.17 C 368.80 337.61 369.20 321.32 359.90 314.15 C 354.53 309.78 347.03 309.09 340.47 310.57 M 390.18 310.30 C 383.56 311.46 377.57 316.41 375.83 323.01 C 374.21 329.05 375.02 336.08 379.16 340.97 C 385.88 348.94 398.77 349.82 407.29 344.31 C 417.18 337.90 417.77 321.63 408.62 314.32 C 403.57 310.07 396.50 309.21 390.18 310.30 M 425.06 310.39 C 426.58 311.62 428.92 312.61 428.56 314.97 C 428.60 324.30 428.67 333.65 428.53 342.98 C 428.79 345.25 426.44 345.95 424.91 346.93 C 428.67 347.04 432.44 347.01 436.20 346.78 C 434.49 346.03 431.81 345.57 432.09 343.12 C 431.90 333.73 431.98 324.34 432.05 314.95 C 431.68 312.42 434.27 311.54 435.96 310.38 C 432.33 310.62 428.69 310.63 425.06 310.39 M 444.29 310.34 C 444.94 311.16 446.35 311.63 446.22 312.88 C 442.49 318.53 437.46 323.24 433.93 329.00 C 437.75 334.17 442.03 339.00 446.15 343.93 C 448.57 346.97 452.69 347.08 456.24 346.89 C 454.23 346.03 452.03 345.29 450.61 343.52 C 446.10 338.25 441.65 332.94 437.13 327.68 C 440.90 323.26 444.71 318.87 448.49 314.46 C 450.12 312.39 452.63 311.39 455.04 310.50 C 451.45 310.61 447.86 310.61 444.29 310.34 M 161.72 363.37 C 162.95 363.87 164.18 364.39 165.41 364.92 C 165.36 372.50 165.68 380.10 165.22 387.67 C 164.34 387.91 162.57 388.38 161.69 388.62 C 168.16 389.64 174.78 388.66 181.32 389.05 C 181.88 386.92 182.27 384.76 182.38 382.57 C 180.93 383.97 179.85 385.90 178.02 386.83 C 175.03 387.60 171.92 387.13 168.88 387.05 C 168.65 380.35 168.72 373.65 168.76 366.95 C 168.40 364.98 170.16 363.95 171.54 363.03 C 168.26 363.01 164.98 362.99 161.72 363.37 M 190.43 363.13 C 191.60 363.77 192.80 364.38 193.95 365.06 C 194.03 371.69 194.00 378.33 194.00 384.97 C 194.35 386.85 192.86 388.66 191.05 389.01 C 194.30 389.10 197.58 389.38 200.79 388.72 C 199.96 388.38 198.29 387.71 197.46 387.37 C 196.89 379.99 197.39 372.55 197.23 365.15 C 198.24 364.46 199.26 363.78 200.27 363.09 C 196.99 363.06 193.71 363.02 190.43 363.13 M 208.72 363.27 C 209.94 363.77 211.16 364.29 212.36 364.87 C 212.53 371.90 212.53 378.93 212.42 385.96 C 212.56 387.86 210.21 388.32 208.93 389.03 C 213.66 389.05 218.39 389.07 223.12 388.95 C 227.59 389.00 231.23 384.24 230.03 379.93 C 229.64 377.28 227.18 375.90 225.09 374.69 C 226.49 373.34 228.40 372.07 228.40 369.89 C 228.90 366.32 225.57 363.15 222.11 363.20 C 217.65 363.02 213.17 363.01 208.72 363.27 M 238.93 363.25 C 240.18 363.86 241.44 364.45 242.70 365.05 C 242.57 372.50 242.97 379.97 242.53 387.41 C 241.86 387.66 240.52 388.17 239.86 388.42 L 239.85 389.15 C 243.06 389.06 246.27 389.07 249.48 389.16 L 249.44 388.14 C 248.62 388.05 246.98 387.86 246.16 387.77 C 245.98 384.09 245.88 380.41 246.00 376.74 C 247.30 376.80 248.60 376.91 249.90 377.07 C 252.73 380.72 254.77 384.93 257.22 388.86 C 259.39 389.08 261.59 389.25 263.75 388.78 C 258.29 387.24 256.99 381.00 253.79 377.00 C 256.49 375.85 259.72 374.31 260.11 371.01 C 261.01 367.25 257.81 363.73 254.18 363.35 C 249.11 362.91 244.00 363.04 238.93 363.25 M 274.83 380.95 C 273.44 383.66 273.19 387.93 269.44 388.37 L 269.54 389.15 C 272.18 389.15 274.82 389.07 277.47 389.00 C 276.29 388.72 275.40 388.02 274.80 386.91 C 275.31 384.76 276.22 382.75 277.01 380.70 C 280.44 380.68 283.87 380.62 287.30 380.62 C 288.23 382.83 289.08 385.08 289.89 387.35 C 289.17 387.77 287.73 388.59 287.01 389.00 C 290.32 389.12 293.63 389.13 296.94 389.05 C 295.67 388.47 294.40 387.76 293.52 386.65 C 289.70 378.60 287.31 369.89 282.99 362.08 C 279.51 368.01 277.61 374.69 274.83 380.95 M 303.56 363.17 C 304.73 363.77 305.91 364.34 307.10 364.92 C 307.24 372.45 307.29 379.99 307.07 387.51 C 305.93 388.00 304.77 388.46 303.61 388.88 C 307.24 389.08 310.89 389.29 314.52 388.96 C 313.35 388.29 312.10 387.87 310.77 387.68 C 310.40 384.13 310.45 380.56 310.45 377.00 C 311.83 377.18 313.62 376.28 314.70 377.44 C 317.57 380.98 319.09 385.43 322.09 388.88 C 324.13 389.33 326.22 389.08 328.27 388.83 C 322.78 387.18 321.42 380.94 318.21 376.86 C 321.10 375.99 324.24 374.18 324.65 370.89 C 325.51 366.97 321.94 363.47 318.19 363.28 C 313.32 362.97 308.43 363.06 303.56 363.17 M 333.57 363.15 C 338.90 365.12 340.52 371.08 343.78 375.18 C 346.48 378.20 346.21 382.35 345.95 386.12 C 345.92 387.63 344.35 388.60 343.07 389.02 C 346.31 389.09 349.55 389.17 352.79 388.98 C 351.64 388.45 350.50 387.90 349.38 387.32 C 349.39 384.13 348.84 380.83 349.64 377.70 C 351.24 374.40 353.48 371.46 355.31 368.28 C 356.56 366.03 358.44 363.93 360.95 363.14 C 358.18 363.05 355.41 363.07 352.64 363.09 C 353.46 363.74 354.28 364.39 355.10 365.05 C 352.92 368.82 350.65 372.54 348.51 376.34 C 345.59 372.91 343.66 368.79 341.27 365.00 C 342.18 364.40 343.09 363.80 344.01 363.20 C 340.53 363.09 337.05 363.00 333.57 363.15 Z" />
<path fill="#345457" opacity="1.00" d=" M 308.01 152.12 C 314.91 150.68 321.80 149.22 328.71 147.85 C 321.30 159.27 315.28 171.91 305.26 181.36 C 305.94 181.28 307.30 181.12 307.98 181.05 C 305.09 186.37 301.64 191.36 298.51 196.54 C 297.39 198.50 297.22 200.90 295.81 202.71 C 290.54 209.82 285.97 217.42 281.27 224.91 C 287.75 212.14 295.09 199.83 302.77 187.75 C 303.85 186.10 305.10 184.57 306.35 183.05 C 305.93 182.56 305.50 182.07 305.08 181.60 C 303.72 184.31 301.89 186.73 300.13 189.18 C 287.44 207.58 276.73 227.30 267.69 247.73 C 265.10 253.25 263.08 259.02 260.34 264.46 C 259.00 256.00 258.33 246.85 261.88 238.83 C 268.10 220.69 275.18 202.83 283.70 185.64 C 289.47 174.56 295.63 163.46 304.19 154.25 C 305.16 153.07 306.49 152.32 308.01 152.12 Z" />
<path fill="#345457" opacity="1.00" d=" M 384.76 266.25 C 382.47 265.05 387.51 263.61 386.30 265.91 C 385.92 265.99 385.14 266.17 384.76 266.25 Z" />
<path fill="#345457" opacity="1.00" d=" M 252.82 279.48 C 256.66 277.48 261.30 277.39 265.11 279.52 C 261.01 279.47 256.92 279.48 252.82 279.48 Z" />
<path fill="#345457" opacity="1.00" d=" M 299.91 312.03 C 302.38 312.53 305.51 312.65 306.91 315.14 C 308.31 317.71 308.23 321.12 306.71 323.63 C 305.50 325.58 303.06 325.89 301.07 326.59 C 304.39 326.95 307.96 327.12 310.78 329.14 C 314.22 331.51 314.93 336.43 313.42 340.12 C 311.45 345.24 304.34 347.02 299.85 345.07 C 299.65 334.06 299.59 323.03 299.91 312.03 Z" />
<path fill="#345457" opacity="1.00" d=" M 340.36 312.54 C 346.43 310.34 354.08 311.41 358.37 316.56 C 363.62 322.85 363.83 332.74 359.51 339.57 C 354.01 348.22 339.62 348.41 333.85 339.97 C 327.89 331.39 329.90 316.66 340.36 312.54 Z" />
<path fill="#345457" opacity="1.00" d=" M 389.24 312.40 C 395.38 310.33 403.04 311.60 407.17 316.92 C 412.16 323.32 412.28 333.08 407.84 339.81 C 402.19 348.31 387.86 348.30 382.23 339.78 C 376.33 331.08 378.56 316.25 389.24 312.40 Z" />
<path fill="#345457" opacity="1.00" d=" M 136.54 316.57 C 139.10 321.78 140.77 327.37 142.88 332.76 C 138.64 332.79 134.40 332.78 130.16 332.72 C 132.33 327.36 134.39 321.95 136.54 316.57 Z" />
<path fill="#345457" opacity="1.00" d=" M 215.89 364.99 C 218.12 365.05 220.51 364.54 222.64 365.42 C 225.34 366.66 225.85 370.67 223.75 372.68 C 221.68 374.79 218.43 373.85 215.81 374.10 C 215.74 371.06 215.79 368.02 215.89 364.99 Z" />
<path fill="#345457" opacity="1.00" d=" M 246.09 365.07 C 248.98 365.10 252.30 364.32 254.83 366.15 C 257.39 367.85 257.33 372.11 254.79 373.81 C 252.26 375.65 248.90 374.87 245.99 375.05 C 245.94 371.72 245.98 368.39 246.09 365.07 Z" />
<path fill="#345457" opacity="1.00" d=" M 310.54 365.18 C 313.55 365.05 317.10 364.23 319.63 366.39 C 321.80 368.09 321.75 371.82 319.62 373.55 C 317.10 375.78 313.49 374.87 310.44 374.91 C 310.49 371.67 310.50 368.42 310.54 365.18 Z" />
<path fill="#345457" opacity="1.00" d=" M 277.82 378.83 C 279.24 375.10 280.41 371.26 282.40 367.78 C 283.80 371.44 285.18 375.11 286.68 378.74 C 283.73 378.80 280.77 378.83 277.82 378.83 Z" />
<path fill="#345457" opacity="1.00" d=" M 215.82 375.84 C 218.77 376.03 222.24 375.18 224.77 377.14 C 227.91 379.49 227.32 385.06 223.72 386.68 C 221.24 387.69 218.47 387.16 215.87 387.20 C 215.75 383.41 215.74 379.62 215.82 375.84 Z" />
</g>
<g id="#e4bc7fff">
<path fill="#e4bc7f" opacity="1.00" d=" M 185.63 73.16 C 188.52 74.96 189.02 78.58 190.45 81.40 C 193.18 79.34 190.69 74.51 194.21 73.10 C 194.16 75.69 194.02 78.28 193.89 80.87 C 196.24 78.45 198.35 75.76 201.12 73.80 C 201.47 77.76 197.09 79.84 195.65 83.22 C 198.43 82.76 201.57 79.77 204.21 81.87 C 201.73 83.01 199.39 84.42 196.89 85.50 C 199.81 86.28 204.04 84.93 205.77 88.06 C 202.55 88.11 199.33 88.00 196.12 87.77 C 198.47 90.43 202.31 91.76 203.59 95.30 C 199.94 94.39 197.45 91.38 194.19 89.71 C 195.56 93.24 197.13 96.71 198.12 100.39 C 193.93 99.45 194.38 93.93 191.98 91.07 C 191.37 93.95 191.22 96.89 190.58 99.75 C 190.15 99.99 189.31 100.46 188.88 100.70 C 188.98 97.32 189.36 93.96 189.73 90.60 C 186.33 92.62 185.53 97.54 181.56 98.65 C 182.45 95.15 185.01 92.51 186.77 89.47 C 184.00 90.52 181.27 91.79 178.31 92.21 C 180.10 89.24 183.86 88.84 186.24 86.52 C 183.56 85.57 178.88 87.37 177.76 84.05 C 180.61 84.17 183.46 84.06 186.32 84.07 C 184.34 81.82 180.42 81.08 179.94 77.81 C 182.90 79.08 185.64 80.78 188.44 82.37 C 187.40 79.34 185.64 76.46 185.63 73.16 Z" />
<path fill="#e4bc7f" opacity="1.00" d=" M 226.69 77.20 C 227.58 78.07 228.55 78.87 229.58 79.57 C 230.65 78.90 231.71 78.21 232.77 77.52 C 232.64 78.91 232.87 80.23 233.45 81.47 C 233.90 82.82 234.47 84.12 235.12 85.39 C 234.06 85.40 233.00 85.41 231.94 85.43 C 231.83 86.06 231.59 87.31 231.47 87.94 C 230.37 87.72 229.72 86.73 228.91 86.07 C 227.83 86.82 226.76 87.59 225.74 88.40 C 226.08 86.99 226.37 85.57 226.59 84.13 C 225.53 83.28 222.91 83.26 223.35 81.47 C 224.57 81.42 225.78 81.40 227.00 81.42 C 226.93 80.37 226.77 78.26 226.69 77.20 Z" />
<path fill="#e4bc7f" opacity="1.00" d=" M 218.85 95.10 C 219.94 95.32 221.03 95.54 222.12 95.76 C 222.17 96.42 222.27 97.75 222.32 98.42 C 223.07 98.68 224.56 99.20 225.30 99.46 C 223.66 100.18 222.56 101.74 222.12 103.45 C 220.68 103.46 219.25 103.39 217.83 103.26 C 217.83 102.58 217.84 101.20 217.84 100.52 C 216.76 100.17 216.09 99.49 215.85 98.48 C 216.50 98.25 217.79 97.79 218.44 97.56 C 218.54 96.94 218.75 95.72 218.85 95.10 Z" />
<path fill="#e4bc7f" opacity="1.00" d=" M 228.35 97.15 C 228.84 97.73 228.84 97.73 228.35 97.15 Z" />
<path fill="#e4bc7f" opacity="1.00" d=" M 234.44 102.36 C 235.77 101.04 238.16 103.33 236.71 104.65 C 235.35 105.93 233.18 103.68 234.44 102.36 Z" />
<path fill="#e4bc7f" opacity="1.00" d=" M 159.46 104.70 C 159.87 104.42 160.70 103.87 161.11 103.59 C 161.02 106.60 161.09 109.63 160.55 112.61 C 161.74 111.29 162.91 109.95 164.13 108.65 C 163.79 111.51 162.67 114.18 161.97 116.96 C 165.40 113.93 167.47 109.44 171.64 107.28 C 170.52 112.69 164.99 115.69 162.28 120.32 C 166.71 119.54 170.44 116.65 174.91 116.05 C 174.93 116.47 174.98 117.33 175.00 117.75 C 171.13 119.98 166.58 120.67 162.79 123.07 C 167.56 124.14 172.50 124.10 177.28 125.17 L 177.68 126.14 L 177.03 126.79 C 173.26 126.82 169.54 125.89 165.76 126.17 C 168.45 127.47 171.76 127.94 173.66 130.50 C 170.12 130.32 166.93 128.67 163.56 127.78 C 166.00 131.19 169.85 133.16 172.53 136.30 C 172.57 136.75 172.63 137.66 172.66 138.11 C 168.63 135.84 165.43 132.45 161.70 129.78 C 162.28 133.92 164.47 137.56 165.34 141.62 C 163.12 141.87 162.61 139.56 161.94 138.04 C 160.87 135.02 159.96 131.94 158.40 129.13 C 157.38 134.06 157.36 139.17 155.97 144.03 C 155.60 143.81 154.87 143.37 154.51 143.16 C 154.64 139.01 155.62 134.94 155.74 130.79 C 153.29 133.64 152.87 138.20 149.38 139.99 C 149.93 136.14 152.27 132.94 153.55 129.34 C 149.51 131.75 147.91 137.01 143.44 138.68 C 144.92 133.78 149.44 130.88 152.29 126.85 C 148.26 127.79 144.60 129.77 140.68 131.06 C 140.76 130.59 140.92 129.64 141.00 129.16 C 144.43 126.92 148.50 125.99 152.23 124.37 C 147.34 121.98 141.34 123.99 136.62 121.11 C 140.60 119.41 144.94 121.42 149.10 120.76 C 146.31 118.77 142.09 118.22 140.62 114.78 C 143.88 115.62 146.77 117.38 149.83 118.72 C 147.64 115.23 143.58 113.21 142.18 109.22 C 147.65 111.06 150.41 116.99 155.14 120.15 C 154.19 115.15 151.03 110.79 150.80 105.65 C 154.85 108.59 154.81 114.30 157.49 118.26 C 158.39 113.77 158.38 109.14 159.46 104.70 Z" />
<path fill="#e4bc7f" opacity="1.00" d=" M 179.24 105.08 C 180.87 104.59 181.41 105.16 180.88 106.78 C 179.25 107.27 178.70 106.70 179.24 105.08 Z" />
<path fill="#e4bc7f" opacity="1.00" d=" M 259.47 110.69 C 260.14 110.01 260.80 109.32 261.47 108.63 C 261.70 110.64 263.19 111.64 264.92 112.28 C 264.29 112.88 263.67 113.48 263.06 114.09 C 263.30 114.89 263.55 115.70 263.81 116.51 C 262.10 116.49 260.58 117.28 259.00 117.70 C 258.42 116.05 257.31 114.95 255.51 114.75 C 255.85 114.27 256.52 113.30 256.86 112.81 C 256.81 112.09 256.70 110.65 256.65 109.93 C 257.58 110.18 258.52 110.43 259.47 110.69 Z" />
<path fill="#e4bc7f" opacity="1.00" d=" M 186.16 114.15 C 187.17 112.78 189.76 114.33 188.57 115.80 C 187.57 117.18 184.95 115.61 186.16 114.15 Z" />
<path fill="#e4bc7f" opacity="1.00" d=" M 211.31 115.45 C 211.76 115.23 212.66 114.80 213.11 114.58 C 212.72 117.83 211.93 121.01 211.10 124.17 C 213.77 122.25 215.60 119.10 218.94 118.23 C 217.94 121.51 214.97 123.50 212.93 126.09 C 215.78 125.20 218.67 124.42 221.60 123.83 C 220.14 127.12 215.95 126.93 213.19 128.54 C 213.20 128.77 213.23 129.21 213.25 129.44 C 216.47 131.13 221.56 129.70 223.59 133.24 C 219.90 133.41 216.33 132.33 212.70 131.86 C 214.54 134.42 218.42 135.99 218.44 139.47 C 215.96 137.89 213.60 136.15 211.38 134.24 C 212.22 136.86 212.54 139.62 213.14 142.30 C 209.51 141.45 210.61 136.72 208.30 134.46 C 206.82 137.49 207.93 142.76 204.21 144.02 C 204.60 140.52 205.38 137.08 206.01 133.63 C 203.59 135.44 202.04 138.88 198.74 139.10 C 200.21 136.73 201.86 134.48 203.67 132.35 C 200.68 133.04 197.73 134.01 194.65 134.18 C 196.72 131.15 200.66 130.86 203.76 129.46 C 201.00 126.84 195.38 127.86 194.34 123.70 C 197.24 124.53 200.16 125.24 203.07 126.02 C 201.13 123.62 197.80 121.91 197.55 118.54 C 200.40 120.01 202.59 122.40 205.13 124.31 C 204.14 121.31 203.09 118.32 202.64 115.19 C 206.40 117.09 206.09 122.16 208.45 125.30 C 209.50 122.05 209.83 118.55 211.31 115.45 Z" />
<path fill="#e4bc7f" opacity="1.00" d=" M 242.95 120.19 C 243.57 120.58 244.80 121.36 245.42 121.75 C 246.45 121.30 247.49 120.85 248.53 120.40 C 248.27 121.33 247.76 123.20 247.50 124.14 C 248.20 124.98 251.31 125.30 250.14 126.66 C 249.44 126.82 248.05 127.15 247.35 127.31 C 247.32 128.06 247.26 129.55 247.24 130.30 C 245.86 128.83 243.88 127.47 242.42 129.85 C 242.47 128.59 242.54 127.34 242.60 126.08 C 241.93 125.40 239.80 125.39 240.32 124.09 C 240.93 123.90 242.14 123.51 242.75 123.32 C 242.80 122.54 242.90 120.97 242.95 120.19 Z" />
<path fill="#e4bc7f" opacity="1.00" d=" M 260.89 123.23 C 262.49 122.63 263.05 123.16 262.58 124.83 C 260.99 125.41 260.42 124.87 260.89 123.23 Z" />
<path fill="#e4bc7f" opacity="1.00" d=" M 272.28 130.17 C 273.97 130.36 275.63 130.28 277.10 129.33 C 277.85 130.43 278.60 131.54 279.33 132.66 C 278.87 133.85 278.47 135.07 278.13 136.30 C 276.79 136.50 275.44 136.70 274.11 136.90 C 273.22 136.04 272.33 135.19 271.44 134.34 C 272.89 133.26 272.79 131.71 272.28 130.17 Z" />
<path fill="#e4bc7f" opacity="1.00" d=" M 229.31 131.15 C 230.30 129.70 232.87 131.27 231.72 132.75 C 230.74 134.20 228.15 132.61 229.31 131.15 Z" />
<path fill="#e4bc7f" opacity="1.00" d=" M 185.19 133.30 C 186.79 132.72 187.39 133.25 186.97 134.89 C 185.37 135.47 184.78 134.94 185.19 133.30 Z" />
<path fill="#e4bc7f" opacity="1.00" d=" M 181.39 137.34 C 182.98 136.77 183.56 137.30 183.10 138.94 C 181.50 139.53 180.93 138.99 181.39 137.34 Z" />
<path fill="#e4bc7f" opacity="1.00" d=" M 247.95 150.46 C 250.94 146.91 251.93 142.13 254.99 138.63 L 256.19 138.64 C 255.85 142.85 252.63 146.17 251.34 150.14 C 253.34 148.32 255.41 146.57 257.63 145.01 C 257.41 149.15 253.00 151.13 250.83 154.28 C 255.80 153.34 260.10 150.11 265.24 149.94 C 262.10 153.71 256.54 153.82 252.70 156.75 C 257.16 157.38 261.76 156.80 266.17 157.59 C 266.47 157.94 267.07 158.64 267.37 159.00 C 263.13 159.39 258.87 159.22 254.63 159.26 C 258.12 162.65 264.24 162.15 266.86 166.36 C 261.07 165.70 256.06 162.53 250.80 160.26 C 253.34 165.13 258.66 167.80 260.93 172.82 C 256.93 171.96 254.95 167.94 251.84 165.65 C 252.48 169.15 254.95 172.36 254.31 176.03 C 251.01 172.62 250.79 167.55 248.19 163.70 C 247.85 167.47 248.22 171.28 247.82 175.05 C 247.44 175.34 246.67 175.93 246.29 176.23 C 245.90 171.70 246.05 167.15 245.63 162.63 C 242.93 166.94 241.84 172.02 239.30 176.41 C 237.64 177.85 237.78 175.19 238.30 174.23 C 239.59 170.12 241.50 166.23 242.82 162.13 C 240.02 164.33 237.95 167.33 235.07 169.41 L 233.28 169.41 C 235.02 166.63 237.40 164.35 239.40 161.77 C 236.19 162.88 233.04 164.20 229.75 165.07 C 231.69 160.68 237.53 160.93 240.97 158.19 C 236.82 157.72 232.58 158.12 228.47 157.36 C 228.15 157.01 227.52 156.32 227.20 155.97 C 231.96 155.56 236.74 155.82 241.51 155.82 C 238.29 152.95 232.76 152.48 231.11 148.20 C 233.99 149.16 236.69 150.56 239.53 151.62 C 237.91 148.87 234.39 146.85 234.69 143.32 C 238.06 145.62 240.35 149.03 243.06 152.00 C 242.40 147.97 240.56 144.28 239.71 140.30 C 240.23 140.48 241.25 140.85 241.77 141.04 C 243.11 143.99 244.02 147.12 245.47 150.03 C 245.75 146.85 244.87 143.37 246.06 140.38 L 246.95 140.06 C 247.77 143.46 247.57 147.00 247.95 150.46 Z" />
<path fill="#e4bc7f" opacity="1.00" d=" M 184.46 146.20 C 185.77 146.16 187.10 146.14 188.42 146.20 C 188.38 148.03 190.02 148.70 191.42 149.39 C 190.45 149.91 189.50 150.49 188.59 151.11 C 188.62 151.83 188.67 153.27 188.69 153.99 C 187.87 153.67 187.05 153.35 186.23 153.03 C 185.61 153.48 184.38 154.37 183.77 154.82 C 183.90 153.80 184.17 151.74 184.30 150.71 C 183.71 150.42 182.52 149.84 181.92 149.55 C 182.46 148.23 183.60 147.30 184.46 146.20 Z" />
<path fill="#e4bc7f" opacity="1.00" d=" M 206.14 150.00 C 209.10 148.43 206.30 153.36 206.14 150.00 Z" />
<path fill="#e4bc7f" opacity="1.00" d=" M 208.29 157.13 C 208.75 157.45 209.66 158.08 210.11 158.40 C 210.81 158.28 212.20 158.04 212.90 157.92 C 212.68 158.81 212.45 159.70 212.23 160.59 C 213.08 161.45 215.91 161.39 215.19 163.07 C 214.55 163.23 213.28 163.55 212.65 163.71 C 212.46 164.31 212.10 165.52 211.92 166.12 C 211.45 165.84 210.52 165.28 210.06 165.00 C 209.01 165.19 208.03 165.55 207.10 166.07 C 207.38 164.82 207.65 163.57 207.91 162.32 C 206.68 161.62 205.11 161.19 204.55 159.70 C 205.35 159.67 206.95 159.61 207.75 159.57 C 207.89 158.96 208.16 157.74 208.29 157.13 Z" />
<path fill="#e4bc7f" opacity="1.00" d=" M 216.27 180.11 C 219.23 178.53 216.45 183.46 216.27 180.11 Z" />
<path fill="#e4bc7f" opacity="1.00" d=" M 244.22 186.85 C 245.12 185.92 246.01 184.99 246.91 184.06 C 247.56 184.01 248.86 183.90 249.52 183.85 C 250.14 185.01 251.41 186.02 251.47 187.43 C 251.08 188.58 250.34 189.56 249.69 190.56 C 248.53 190.52 247.37 190.43 246.23 190.30 C 245.60 189.12 244.93 187.98 244.22 186.85 Z" />
<path fill="#e4bc7f" opacity="1.00" d=" M 262.51 186.57 C 263.34 186.65 264.16 186.75 264.99 186.85 C 265.49 186.68 266.48 186.34 266.98 186.18 C 266.94 187.36 266.91 188.54 266.87 189.73 C 268.26 190.23 269.67 190.64 271.10 190.98 C 269.24 191.43 267.85 192.96 267.44 194.80 C 265.90 194.93 264.36 195.02 262.82 195.07 C 262.85 194.37 262.90 192.98 262.93 192.28 C 261.71 191.71 260.23 191.42 259.59 190.07 C 260.40 189.93 262.01 189.65 262.81 189.52 C 262.74 188.78 262.59 187.31 262.51 186.57 Z" />
<path fill="#e4bc7f" opacity="1.00" d=" M 255.46 196.17 C 257.05 195.65 257.60 196.20 257.11 197.84 C 255.50 198.38 254.95 197.83 255.46 196.17 Z" />
<path fill="#e4bc7f" opacity="1.00" d=" M 265.23 201.22 C 265.78 201.72 265.78 201.72 265.23 201.22 Z" />
<path fill="#e4bc7f" opacity="1.00" d=" M 247.56 202.11 C 248.99 202.24 250.42 202.39 251.86 202.60 C 251.28 204.39 252.44 205.59 253.60 206.72 C 252.61 207.71 251.71 208.79 250.91 209.95 C 249.34 209.20 247.67 209.20 246.04 209.71 C 246.11 209.03 246.27 207.69 246.35 207.01 C 245.93 206.52 245.10 205.53 244.68 205.04 C 245.85 204.27 246.99 203.44 247.56 202.11 Z" />
<path fill="#e4bc7f" opacity="1.00" d=" M 61.81 305.32 C 67.75 304.10 73.91 307.02 76.78 312.33 C 81.71 321.71 85.52 331.64 90.42 341.04 C 95.13 330.55 99.49 319.88 104.64 309.60 C 106.52 320.07 107.94 330.61 109.70 341.09 C 110.46 345.80 112.34 350.76 116.50 353.47 C 118.68 355.07 121.47 355.12 124.03 355.59 C 120.11 356.62 115.70 356.07 112.42 353.59 C 108.55 350.52 106.42 345.73 105.81 340.91 C 104.70 333.43 103.79 325.93 102.69 318.45 C 98.13 328.14 93.60 337.89 89.83 347.92 C 84.95 338.40 80.83 328.49 76.23 318.82 C 75.24 327.78 74.29 336.77 73.96 345.78 C 74.72 346.00 76.23 346.43 76.99 346.65 C 73.64 347.04 70.26 347.02 66.90 346.90 C 68.57 345.97 71.04 345.45 71.10 343.10 C 72.24 333.74 73.50 324.35 74.25 314.95 C 72.31 309.64 67.40 305.97 61.81 305.32 Z" />
<path fill="#e4bc7f" opacity="1.00" d=" M 136.87 309.83 C 142.37 320.78 146.28 332.48 151.46 343.59 C 152.20 345.58 154.41 345.98 156.15 346.69 C 152.14 347.15 148.11 347.02 144.09 346.84 C 145.07 346.27 146.26 345.95 147.02 345.05 C 146.69 341.30 144.71 337.95 143.57 334.40 C 138.88 334.38 134.19 334.38 129.51 334.40 C 128.22 338.15 126.03 341.69 125.97 345.76 C 126.72 345.98 128.21 346.43 128.96 346.65 C 125.27 347.09 121.55 347.04 117.84 346.89 C 120.18 346.05 122.65 344.96 123.40 342.34 C 127.88 331.50 132.70 320.80 136.87 309.83 M 136.54 316.57 C 134.39 321.95 132.33 327.36 130.16 332.72 C 134.40 332.78 138.64 332.79 142.88 332.76 C 140.77 327.37 139.10 321.78 136.54 316.57 Z" />
<path fill="#e4bc7f" opacity="1.00" d=" M 170.37 313.31 C 177.39 308.30 187.28 309.09 194.46 313.36 C 194.84 315.89 195.17 318.44 195.54 320.97 C 194.10 318.38 192.79 315.46 190.21 313.80 C 183.56 309.43 173.26 311.22 169.48 318.56 C 165.37 326.41 166.06 337.78 173.42 343.50 C 179.42 347.97 187.84 346.30 193.43 341.96 C 193.39 338.35 193.94 334.67 193.15 331.10 C 192.13 330.44 191.06 329.88 190.00 329.30 C 193.35 329.60 196.71 329.58 200.07 329.44 C 199.06 329.97 198.04 330.48 197.03 331.02 C 196.69 334.49 197.40 338.21 196.42 341.53 C 188.71 350.63 171.85 349.77 165.75 339.23 C 161.07 331.03 162.41 319.03 170.37 313.31 Z" />
<path fill="#e4bc7f" opacity="1.00" d=" M 209.05 310.40 C 212.98 310.61 216.92 310.62 220.85 310.47 C 218.86 311.40 216.09 312.32 216.57 315.10 C 216.51 324.39 216.47 333.69 216.59 342.98 C 216.24 345.69 219.12 346.07 221.01 346.75 C 216.98 347.06 212.95 347.08 208.92 346.73 C 210.69 346.10 213.32 345.52 213.02 343.04 C 213.20 333.68 213.12 324.30 213.06 314.94 C 213.52 312.35 210.76 311.52 209.05 310.40 Z" />
<path fill="#e4bc7f" opacity="1.00" d=" M 239.41 312.44 C 246.33 308.46 255.15 309.41 261.98 313.13 C 262.52 315.76 262.74 318.44 262.84 321.13 C 260.62 310.95 246.28 308.34 239.51 315.50 C 233.47 321.97 233.37 332.72 237.93 340.03 C 242.67 347.65 254.79 348.14 260.59 341.54 C 262.98 338.84 263.49 335.14 264.62 331.84 C 264.33 334.95 264.84 338.36 263.26 341.20 C 257.94 348.77 246.51 349.55 239.02 344.90 C 227.92 338.02 228.04 319.01 239.41 312.44 Z" />
<path fill="#e4bc7f" opacity="1.00" d=" M 292.09 310.43 C 297.73 311.01 304.19 309.28 309.06 313.00 C 313.25 316.14 312.47 323.04 308.21 325.76 C 310.82 326.51 313.63 327.31 315.49 329.45 C 319.56 333.74 318.84 341.59 313.78 344.81 C 308.35 348.44 300.83 348.71 295.02 345.85 C 290.85 343.78 289.23 339.00 289.12 334.62 C 290.98 338.29 292.04 342.76 296.18 344.60 C 296.36 334.74 296.31 324.86 296.24 315.00 C 296.66 312.30 293.95 311.45 292.09 310.43 M 299.91 312.03 C 299.59 323.03 299.65 334.06 299.85 345.07 C 304.34 347.02 311.45 345.24 313.42 340.12 C 314.93 336.43 314.22 331.51 310.78 329.14 C 307.96 327.12 304.39 326.95 301.07 326.59 C 303.06 325.89 305.50 325.58 306.71 323.63 C 308.23 321.12 308.31 317.71 306.91 315.14 C 305.51 312.65 302.38 312.53 299.91 312.03 Z" />
<path fill="#e4bc7f" opacity="1.00" d=" M 340.47 310.57 C 347.03 309.09 354.53 309.78 359.90 314.15 C 369.20 321.32 368.80 337.61 358.99 344.17 C 349.81 350.34 335.15 348.75 329.16 338.87 C 326.32 334.16 325.95 328.24 327.32 322.99 C 328.97 316.83 334.34 312.07 340.47 310.57 M 340.36 312.54 C 329.90 316.66 327.89 331.39 333.85 339.97 C 339.62 348.41 354.01 348.22 359.51 339.57 C 363.83 332.74 363.62 322.85 358.37 316.56 C 354.08 311.41 346.43 310.34 340.36 312.54 Z" />
<path fill="#e4bc7f" opacity="1.00" d=" M 390.18 310.30 C 396.50 309.21 403.57 310.07 408.62 314.32 C 417.77 321.63 417.18 337.90 407.29 344.31 C 398.77 349.82 385.88 348.94 379.16 340.97 C 375.02 336.08 374.21 329.05 375.83 323.01 C 377.57 316.41 383.56 311.46 390.18 310.30 M 389.24 312.40 C 378.56 316.25 376.33 331.08 382.23 339.78 C 387.86 348.30 402.19 348.31 407.84 339.81 C 412.28 333.08 412.16 323.32 407.17 316.92 C 403.04 311.60 395.38 310.33 389.24 312.40 Z" />
<path fill="#e4bc7f" opacity="1.00" d=" M 425.06 310.39 C 428.69 310.63 432.33 310.62 435.96 310.38 C 434.27 311.54 431.68 312.42 432.05 314.95 C 431.98 324.34 431.90 333.73 432.09 343.12 C 431.81 345.57 434.49 346.03 436.20 346.78 C 432.44 347.01 428.67 347.04 424.91 346.93 C 426.44 345.95 428.79 345.25 428.53 342.98 C 428.67 333.65 428.60 324.30 428.56 314.97 C 428.92 312.61 426.58 311.62 425.06 310.39 Z" />
<path fill="#e4bc7f" opacity="1.00" d=" M 444.29 310.34 C 447.86 310.61 451.45 310.61 455.04 310.50 C 452.63 311.39 450.12 312.39 448.49 314.46 C 444.71 318.87 440.90 323.26 437.13 327.68 C 441.65 332.94 446.10 338.25 450.61 343.52 C 452.03 345.29 454.23 346.03 456.24 346.89 C 452.69 347.08 448.57 346.97 446.15 343.93 C 442.03 339.00 437.75 334.17 433.93 329.00 C 437.46 323.24 442.49 318.53 446.22 312.88 C 446.35 311.63 444.94 311.16 444.29 310.34 Z" />
</g>
<g id="#a69771ff">
<path fill="#a69771" opacity="1.00" d=" M 233.31 95.14 C 234.92 94.63 235.47 95.19 234.95 96.83 C 233.33 97.35 232.78 96.79 233.31 95.14 Z" />
<path fill="#a69771" opacity="1.00" d=" M 184.33 105.29 C 185.97 104.84 186.51 105.42 185.94 107.03 C 184.29 107.47 183.76 106.89 184.33 105.29 Z" />
<path fill="#a69771" opacity="1.00" d=" M 246.06 112.13 C 247.67 111.56 248.23 112.11 247.76 113.75 C 246.15 114.31 245.58 113.77 246.06 112.13 Z" />
<path fill="#a69771" opacity="1.00" d=" M 226.00 118.56 C 227.39 118.08 227.89 118.55 227.47 119.98 C 226.09 120.43 225.60 119.96 226.00 118.56 Z" />
<path fill="#a69771" opacity="1.00" d=" M 230.22 122.22 C 231.83 121.68 232.39 122.23 231.90 123.88 C 230.29 124.41 229.73 123.86 230.22 122.22 Z" />
<path fill="#a69771" opacity="1.00" d=" M 257.07 123.11 C 258.71 122.59 259.26 123.13 258.73 124.75 C 257.08 125.27 256.53 124.72 257.07 123.11 Z" />
<path fill="#a69771" opacity="1.00" d=" M 196.29 146.99 C 197.89 146.43 198.46 146.98 198.00 148.62 C 196.39 149.19 195.82 148.65 196.29 146.99 Z" />
<path fill="#a69771" opacity="1.00" d=" M 221.15 147.10 C 222.76 146.54 223.33 147.08 222.87 148.71 C 221.24 149.27 220.67 148.74 221.15 147.10 Z" />
<path fill="#a69771" opacity="1.00" d=" M 200.18 152.98 C 201.79 152.45 202.35 153.00 201.87 154.63 C 200.23 155.17 199.67 154.62 200.18 152.98 Z" />
<path fill="#a69771" opacity="1.00" d=" M 220.09 153.36 C 223.45 153.56 218.49 156.29 220.09 153.36 Z" />
<path fill="#a69771" opacity="1.00" d=" M 223.30 164.25 C 223.82 164.71 223.82 164.71 223.30 164.25 Z" />
<path fill="#a69771" opacity="1.00" d=" M 264.56 176.05 C 267.61 174.67 264.51 179.41 264.56 176.05 Z" />
<path fill="#a69771" opacity="1.00" d=" M 259.13 179.16 C 262.53 178.77 259.18 183.39 258.31 180.23 C 258.51 179.97 258.92 179.43 259.13 179.16 Z" />
<path fill="#a69771" opacity="1.00" d=" M 238.31 182.16 C 239.90 181.61 240.46 182.15 239.98 183.79 C 238.37 184.36 237.81 183.81 238.31 182.16 Z" />
<path fill="#a69771" opacity="1.00" d=" M 232.22 183.13 C 233.82 182.58 234.39 183.12 233.92 184.76 C 232.29 185.31 231.73 184.77 232.22 183.13 Z" />
<path fill="#a69771" opacity="1.00" d=" M 236.17 188.36 C 237.81 187.82 238.36 188.37 237.82 190.01 C 236.20 190.53 235.65 189.98 236.17 188.36 Z" />
<path fill="#a69771" opacity="1.00" d=" M 257.27 199.22 C 258.89 198.69 259.44 199.24 258.92 200.88 C 257.30 201.41 256.75 200.85 257.27 199.22 Z" />
</g>
<g id="#bdf3f6ff">
<path fill="#bdf3f6" opacity="1.00" d=" M 304.35 150.46 C 314.10 148.11 323.97 146.24 333.80 144.22 C 323.96 160.51 313.73 176.57 303.90 192.87 C 313.02 187.10 321.97 181.06 331.04 175.20 C 345.44 178.28 359.88 181.20 374.28 184.31 C 356.27 196.37 337.94 207.93 319.85 219.87 C 318.45 220.78 317.06 221.73 315.52 222.37 C 314.76 222.43 313.24 222.55 312.48 222.61 C 316.21 217.37 322.99 215.50 327.52 211.44 C 322.09 214.74 316.16 217.53 311.82 222.30 C 310.86 222.40 308.92 222.60 307.95 222.70 C 308.10 222.10 308.40 220.91 308.54 220.31 C 314.67 216.34 321.00 212.65 327.59 209.50 C 332.26 207.23 337.25 205.57 341.58 202.63 C 350.45 196.82 359.44 191.19 368.25 185.29 C 356.12 182.62 343.94 180.11 331.81 177.41 C 322.79 183.15 313.87 189.04 304.85 194.78 C 302.04 196.60 298.72 198.17 297.41 201.49 C 287.87 219.74 275.93 236.95 269.52 256.68 C 269.97 257.30 270.43 257.93 270.91 258.55 C 272.84 254.49 275.99 251.25 278.69 247.72 C 285.18 240.06 292.37 232.96 300.27 226.76 C 300.53 227.30 301.04 228.38 301.30 228.92 C 291.73 236.77 282.83 245.42 274.76 254.80 C 271.69 258.04 269.29 261.86 266.07 264.97 C 267.07 263.28 268.15 261.63 269.23 260.00 C 269.08 251.99 271.97 244.45 274.88 237.13 C 270.00 247.72 264.67 258.12 260.48 269.01 C 256.41 260.96 258.74 251.58 259.60 243.06 C 258.87 238.43 256.17 234.31 253.22 230.76 C 246.19 222.74 236.34 217.92 226.45 214.39 C 210.89 208.97 194.44 206.58 178.05 205.37 C 175.81 205.23 173.37 204.92 171.41 206.26 C 160.65 212.54 149.78 218.64 139.00 224.89 C 136.48 226.37 133.76 227.58 131.54 229.52 C 131.53 230.47 131.51 232.38 131.49 233.33 C 132.13 233.43 133.42 233.63 134.06 233.74 C 133.21 233.75 131.51 233.78 130.66 233.80 C 130.91 236.00 131.22 238.19 131.54 240.39 C 129.96 239.80 128.41 239.14 126.77 238.79 C 126.06 238.67 124.66 238.43 123.95 238.31 C 125.48 238.32 127.01 238.32 128.55 238.29 C 128.13 236.25 127.73 234.22 127.36 232.18 C 128.17 232.10 129.80 231.93 130.61 231.85 C 129.46 230.90 128.29 229.96 127.12 229.04 C 141.72 220.60 156.36 212.23 170.96 203.79 C 173.07 202.50 175.64 203.08 177.97 203.11 C 197.30 204.48 216.89 207.39 234.71 215.35 C 244.79 219.77 254.09 226.61 259.58 236.34 C 266.67 215.75 274.78 195.42 285.31 176.31 C 290.63 167.05 296.30 157.61 304.35 150.46 M 308.01 152.12 C 306.49 152.32 305.16 153.07 304.19 154.25 C 295.63 163.46 289.47 174.56 283.70 185.64 C 275.18 202.83 268.10 220.69 261.88 238.83 C 258.33 246.85 259.00 256.00 260.34 264.46 C 263.08 259.02 265.10 253.25 267.69 247.73 C 276.73 227.30 287.44 207.58 300.13 189.18 C 301.89 186.73 303.72 184.31 305.08 181.60 C 305.50 182.07 305.93 182.56 306.35 183.05 C 305.10 184.57 303.85 186.10 302.77 187.75 C 295.09 199.83 287.75 212.14 281.27 224.91 C 285.97 217.42 290.54 209.82 295.81 202.71 C 297.22 200.90 297.39 198.50 298.51 196.54 C 301.64 191.36 305.09 186.37 307.98 181.05 C 307.30 181.12 305.94 181.28 305.26 181.36 C 315.28 171.91 321.30 159.27 328.71 147.85 C 321.80 149.22 314.91 150.68 308.01 152.12 Z" />
<path fill="#bdf3f6" opacity="1.00" d=" M 323.04 186.33 C 324.03 187.03 325.01 187.73 326.00 188.44 C 326.60 188.12 327.78 187.49 328.38 187.18 C 329.00 187.20 330.25 187.26 330.87 187.29 C 331.36 188.71 331.85 190.11 332.38 191.53 C 333.22 190.57 333.90 189.51 334.39 188.33 C 334.78 188.78 335.57 189.68 335.97 190.13 C 335.99 189.66 336.05 188.72 336.08 188.25 C 337.75 188.69 339.29 189.54 340.97 189.99 C 340.87 190.68 340.67 192.05 340.57 192.74 C 339.98 192.84 338.80 193.05 338.22 193.15 C 337.90 193.68 337.26 194.74 336.94 195.27 C 333.91 194.99 331.52 196.70 329.39 198.62 C 329.58 200.45 329.81 202.27 330.09 204.09 C 329.22 203.05 328.63 201.69 327.39 201.03 C 326.01 202.80 324.98 204.83 323.49 206.51 C 322.24 207.43 320.51 206.89 319.08 207.15 C 318.29 208.74 317.48 210.46 315.35 210.35 C 315.83 208.38 315.87 206.01 317.54 204.59 C 318.87 203.71 320.57 204.20 322.07 204.06 C 324.01 200.76 327.53 198.11 327.21 193.90 C 327.65 194.45 328.53 195.55 328.97 196.10 C 331.07 194.37 330.34 191.57 330.65 189.23 C 328.89 190.26 326.93 190.79 324.94 191.05 C 324.59 192.83 325.23 195.17 323.56 196.42 C 321.49 198.02 318.87 198.55 316.39 199.14 C 315.92 200.40 315.49 201.67 315.08 202.95 C 312.27 203.76 311.48 206.76 309.80 208.80 C 308.77 209.87 307.42 210.55 306.29 211.49 C 305.60 213.65 305.68 215.99 305.45 218.24 C 304.84 216.82 303.58 215.88 302.25 215.19 C 303.29 213.83 304.10 212.34 304.94 210.86 C 303.90 210.56 302.87 210.28 301.83 210.02 L 300.89 209.91 C 301.51 209.82 302.76 209.64 303.38 209.55 C 303.46 208.96 303.60 207.79 303.68 207.21 C 304.61 207.50 305.43 208.03 306.13 208.82 C 308.62 204.70 311.76 201.10 314.27 197.03 C 315.50 196.51 316.80 196.24 318.08 195.90 C 317.36 193.56 316.68 191.20 316.07 188.83 C 317.60 190.96 319.08 193.13 320.49 195.35 C 322.91 193.00 321.63 189.20 323.04 186.33 Z" />
<path fill="#bdf3f6" opacity="1.00" d=" M 181.92 210.22 C 183.77 210.19 185.63 210.20 187.48 210.19 C 187.94 210.79 188.85 212.00 189.31 212.60 L 189.11 213.18 C 189.93 213.74 190.80 214.21 191.72 214.59 L 191.91 214.68 C 188.16 215.86 185.82 211.84 182.18 212.50 C 182.11 211.93 181.99 210.79 181.92 210.22 Z" />
<path fill="#bdf3f6" opacity="1.00" d=" M 190.99 211.65 C 193.28 210.50 195.78 210.13 198.07 211.52 L 196.28 211.85 C 196.35 212.58 196.48 214.05 196.55 214.78 C 196.10 214.06 195.67 213.33 195.27 212.60 C 194.57 213.00 193.16 213.79 192.46 214.18 C 192.48 213.76 192.53 212.93 192.56 212.51 C 192.16 212.30 191.38 211.87 190.99 211.65 Z" />
<path fill="#bdf3f6" opacity="1.00" d=" M 163.10 213.73 C 169.80 218.13 177.97 220.21 185.96 219.16 C 188.90 218.50 191.74 220.18 193.34 222.57 L 193.17 224.31 C 192.91 224.30 192.39 224.28 192.13 224.27 C 191.82 224.22 191.19 224.11 190.88 224.06 C 189.78 221.81 187.36 221.30 185.10 221.70 C 176.90 222.46 168.65 220.16 161.73 215.76 C 162.07 215.26 162.75 214.24 163.10 213.73 Z" />
<path fill="#bdf3f6" opacity="1.00" d=" M 199.97 219.46 L 200.69 219.58 L 201.13 220.05 C 201.43 220.14 202.05 220.32 202.36 220.40 C 202.87 221.94 199.96 221.96 199.33 220.97 C 199.49 220.59 199.81 219.84 199.97 219.46 Z" />
<path fill="#bdf3f6" opacity="1.00" d=" M 208.38 220.46 C 209.08 219.81 209.79 219.19 210.52 218.57 C 211.83 220.32 214.07 219.84 215.96 220.02 C 218.79 219.99 221.49 220.88 224.10 221.88 L 221.63 221.68 C 222.21 222.22 223.38 223.29 223.96 223.83 C 219.80 222.55 215.48 222.28 211.16 222.18 C 210.46 221.75 209.08 220.89 208.38 220.46 Z" />
<path fill="#bdf3f6" opacity="1.00" d=" M 325.72 226.88 C 326.69 224.78 329.15 225.58 330.95 225.64 C 338.60 226.59 346.23 227.65 353.89 228.53 C 356.48 228.87 359.22 229.01 361.53 230.38 C 372.93 236.64 384.31 242.93 395.78 249.07 C 396.97 249.77 398.11 250.56 399.23 251.39 C 393.02 252.07 386.73 252.02 380.60 253.20 C 388.86 257.62 397.04 262.19 405.33 266.55 C 404.33 267.27 403.37 268.02 402.43 268.81 C 404.91 269.76 407.47 270.80 409.47 272.61 C 413.41 276.49 418.57 278.70 423.01 281.92 C 362.95 282.12 302.89 281.92 242.83 282.02 C 242.20 280.87 241.56 279.71 240.94 278.56 C 193.32 279.29 145.70 279.70 98.08 280.58 C 104.30 275.22 110.90 270.34 117.26 265.16 C 119.58 263.70 118.87 260.66 119.36 258.36 C 125.10 254.83 130.61 250.94 136.46 247.59 C 137.06 247.77 138.26 248.13 138.86 248.31 C 133.40 252.51 127.17 255.61 121.77 259.88 C 121.37 261.53 121.33 263.25 121.16 264.94 C 115.84 269.25 110.46 273.48 105.10 277.73 C 150.90 277.43 196.70 276.46 242.50 276.26 C 242.99 277.34 243.49 278.43 243.99 279.53 C 249.53 280.49 253.50 275.26 258.99 275.68 C 263.20 275.07 266.44 278.09 270.10 279.40 C 318.39 279.62 366.70 279.33 414.99 279.54 C 412.14 277.66 409.70 275.25 406.98 273.22 C 403.83 271.46 400.28 270.55 397.00 269.09 C 398.36 268.41 399.38 267.23 400.64 266.37 C 392.14 262.02 383.83 257.29 375.42 252.78 C 372.30 251.12 368.65 251.33 365.25 250.90 C 365.34 251.73 365.52 253.38 365.61 254.21 C 364.57 252.42 363.30 250.21 360.90 250.43 C 342.17 248.47 323.12 247.83 304.46 250.77 L 304.52 251.73 C 302.62 251.71 300.72 251.75 298.83 251.83 C 299.49 251.67 300.82 251.35 301.49 251.19 C 302.92 251.05 303.67 249.60 303.69 248.29 C 313.75 247.32 323.83 245.89 333.97 246.64 C 343.64 246.47 353.22 248.04 362.76 249.42 C 362.00 247.56 361.68 245.58 361.53 243.59 C 360.93 242.28 359.50 241.94 358.30 242.65 L 358.86 241.34 C 356.02 240.61 353.06 240.49 350.16 240.91 C 352.70 239.89 355.43 240.19 358.06 240.62 C 358.71 239.47 359.50 238.41 360.57 237.62 C 361.36 239.66 362.17 241.70 362.97 243.75 C 363.61 243.78 364.89 243.85 365.53 243.88 C 369.36 244.33 373.22 244.03 377.05 243.66 C 377.25 244.21 377.66 245.31 377.86 245.86 C 373.50 247.01 369.06 243.40 365.02 246.02 C 365.02 247.26 365.03 248.51 365.03 249.76 C 373.84 252.33 382.88 249.52 391.81 249.43 C 381.65 243.78 371.41 238.28 361.26 232.61 C 357.91 230.53 353.82 230.72 350.06 230.13 C 341.94 229.05 333.79 228.26 325.72 226.88 M 252.82 279.48 C 256.92 279.48 261.01 279.47 265.11 279.52 C 261.30 277.39 256.66 277.48 252.82 279.48 Z" />
<path fill="#bdf3f6" opacity="1.00" d=" M 318.03 230.41 L 318.97 230.59 C 319.87 230.80 320.81 230.72 321.72 230.59 C 322.24 230.53 323.27 230.40 323.79 230.34 C 323.55 230.74 323.06 231.55 322.82 231.95 C 323.42 232.07 324.63 232.31 325.24 232.42 C 324.03 232.37 321.76 233.25 322.41 230.65 C 321.76 231.25 320.46 232.43 319.81 233.03 C 319.63 232.78 319.29 232.29 319.11 232.05 C 318.84 231.64 318.30 230.82 318.03 230.41 Z" />
<path fill="#bdf3f6" opacity="1.00" d=" M 329.55 230.26 C 330.18 230.37 331.44 230.58 332.08 230.69 C 334.27 231.97 336.77 232.48 339.15 233.29 C 336.46 232.79 333.82 232.10 331.17 231.44 C 330.71 233.01 330.11 234.65 328.35 235.07 C 328.08 234.54 327.54 233.47 327.27 232.93 C 328.04 233.37 328.86 233.65 329.72 233.78 C 329.67 232.90 329.59 231.14 329.55 230.26 Z" />
<path fill="#bdf3f6" opacity="1.00" d=" M 340.57 233.60 C 343.62 233.01 346.79 233.57 349.89 233.63 L 349.54 234.03 C 349.17 234.46 348.42 235.33 348.05 235.76 C 343.40 236.15 338.80 234.53 334.17 235.46 C 333.94 234.95 333.48 233.92 333.25 233.40 C 333.60 233.72 334.29 234.35 334.63 234.67 C 336.67 234.77 338.68 234.38 340.57 233.60 Z" />
<path fill="#bdf3f6" opacity="1.00" d=" M 240.39 237.42 C 241.09 237.97 241.78 238.52 242.47 239.07 C 242.02 239.49 241.12 240.32 240.67 240.73 C 239.48 239.93 238.29 239.13 237.13 238.30 C 238.22 238.02 239.31 237.73 240.39 237.42 Z" />
<path fill="#bdf3f6" opacity="1.00" d=" M 245.43 240.75 C 245.59 244.20 245.18 247.87 246.87 251.03 C 246.36 250.53 245.33 249.54 244.81 249.05 C 244.76 249.72 244.65 251.06 244.60 251.73 C 243.84 251.02 243.20 250.18 242.51 249.42 L 242.62 249.13 C 242.75 248.77 243.00 248.05 243.13 247.69 C 243.94 245.39 244.70 243.08 245.43 240.75 Z" />
<path fill="#bdf3f6" opacity="1.00" d=" M 345.33 242.92 C 348.91 242.37 352.57 242.41 356.18 242.55 C 352.57 242.75 348.93 243.72 345.33 242.92 Z" />
<path fill="#bdf3f6" opacity="1.00" d=" M 218.47 245.39 C 224.21 246.52 229.65 249.49 235.02 251.93 C 228.90 249.87 222.59 248.33 216.60 245.93 C 217.07 245.80 218.00 245.52 218.47 245.39 Z" />
<path fill="#bdf3f6" opacity="1.00" d=" M 144.98 252.67 C 157.21 250.15 169.60 248.48 182.07 247.80 C 185.64 247.68 189.28 247.43 192.77 248.40 C 197.20 249.18 201.72 248.10 206.17 248.83 C 219.19 250.43 231.97 254.28 243.59 260.40 C 247.78 262.56 251.34 265.71 254.77 268.91 C 239.79 257.95 221.53 252.07 203.14 250.54 C 183.74 248.46 164.30 250.99 144.98 252.67 Z" />
<path fill="#bdf3f6" opacity="1.00" d=" M 294.24 251.66 C 294.23 251.13 294.20 250.06 294.18 249.52 L 296.20 250.45 C 295.40 251.00 294.61 251.58 293.85 252.19 L 296.75 252.12 C 285.15 255.03 273.75 260.38 265.98 269.74 C 270.06 262.95 276.75 258.19 283.71 254.66 C 287.04 253.19 290.47 251.34 294.24 251.66 Z" />
<path fill="#bdf3f6" opacity="1.00" d=" M 304.90 254.84 C 326.60 251.26 348.84 254.09 370.00 259.51 C 377.72 261.59 385.46 263.70 392.87 266.76 C 391.20 266.34 389.52 265.91 387.86 265.48 C 386.38 266.51 384.55 266.81 382.97 265.80 C 361.04 264.16 339.13 260.76 317.06 261.96 C 300.75 262.71 282.78 264.41 269.94 275.61 C 273.87 270.28 279.98 267.27 285.99 264.90 C 300.70 259.59 316.55 259.00 332.03 259.26 C 347.27 260.20 362.58 261.31 377.51 264.66 C 379.58 265.05 381.86 265.73 383.62 264.16 C 377.03 263.10 370.62 261.21 364.05 260.04 C 345.00 256.11 325.38 254.61 306.00 256.58 C 294.32 258.34 282.77 262.03 273.09 268.97 C 280.66 261.60 290.84 257.49 301.10 255.58 C 301.68 255.66 302.85 255.82 303.44 255.91 C 305.28 256.53 307.47 256.59 309.00 255.18 C 307.64 254.90 306.27 254.79 304.90 254.84 M 384.76 266.25 C 385.14 266.17 385.92 265.99 386.30 265.91 C 387.51 263.61 382.47 265.05 384.76 266.25 Z" />
<path fill="#bdf3f6" opacity="1.00" d=" M 193.30 257.63 C 194.47 256.97 195.80 256.95 197.10 257.08 C 212.41 258.04 227.77 260.83 241.97 266.80 C 206.34 255.89 168.41 258.57 132.04 263.79 C 145.15 260.37 158.63 258.47 172.12 257.33 C 173.71 257.26 175.40 256.93 176.91 257.62 C 182.01 259.56 188.25 259.81 193.30 257.63 Z" />
<path fill="#bdf3f6" opacity="1.00" d=" M 302.98 266.18 C 321.27 263.01 340.05 264.72 358.14 268.36 C 371.77 271.64 385.97 274.10 400.01 272.33 C 392.55 274.68 384.62 274.10 376.93 273.67 C 366.41 273.13 356.30 269.84 345.86 268.67 C 322.85 265.83 298.31 265.38 277.02 275.88 C 284.66 270.47 293.91 267.99 302.98 266.18 Z" />
<path fill="#bdf3f6" opacity="1.00" d=" M 147.76 270.45 C 176.18 269.58 204.62 270.87 233.05 271.07 C 235.03 271.10 236.99 270.71 238.92 270.32 C 233.87 272.35 228.36 272.25 223.02 272.57 C 197.93 273.49 172.75 272.86 147.76 270.45 Z" />
<path fill="#bdf3f6" opacity="1.00" d=" M 161.72 363.37 C 164.98 362.99 168.26 363.01 171.54 363.03 C 170.16 363.95 168.40 364.98 168.76 366.95 C 168.72 373.65 168.65 380.35 168.88 387.05 C 171.92 387.13 175.03 387.60 178.02 386.83 C 179.85 385.90 180.93 383.97 182.38 382.57 C 182.27 384.76 181.88 386.92 181.32 389.05 C 174.78 388.66 168.16 389.64 161.69 388.62 C 162.57 388.38 164.34 387.91 165.22 387.67 C 165.68 380.10 165.36 372.50 165.41 364.92 C 164.18 364.39 162.95 363.87 161.72 363.37 Z" />
<path fill="#bdf3f6" opacity="1.00" d=" M 190.43 363.13 C 193.71 363.02 196.99 363.06 200.27 363.09 C 199.26 363.78 198.24 364.46 197.23 365.15 C 197.39 372.55 196.89 379.99 197.46 387.37 C 198.29 387.71 199.96 388.38 200.79 388.72 C 197.58 389.38 194.30 389.10 191.05 389.01 C 192.86 388.66 194.35 386.85 194.00 384.97 C 194.00 378.33 194.03 371.69 193.95 365.06 C 192.80 364.38 191.60 363.77 190.43 363.13 Z" />
<path fill="#bdf3f6" opacity="1.00" d=" M 208.72 363.27 C 213.17 363.01 217.65 363.02 222.11 363.20 C 225.57 363.15 228.90 366.32 228.40 369.89 C 228.40 372.07 226.49 373.34 225.09 374.69 C 227.18 375.90 229.64 377.28 230.03 379.93 C 231.23 384.24 227.59 389.00 223.12 388.95 C 218.39 389.07 213.66 389.05 208.93 389.03 C 210.21 388.32 212.56 387.86 212.42 385.96 C 212.53 378.93 212.53 371.90 212.36 364.87 C 211.16 364.29 209.94 363.77 208.72 363.27 M 215.89 364.99 C 215.79 368.02 215.74 371.06 215.81 374.10 C 218.43 373.85 221.68 374.79 223.75 372.68 C 225.85 370.67 225.34 366.66 222.64 365.42 C 220.51 364.54 218.12 365.05 215.89 364.99 M 215.82 375.84 C 215.74 379.62 215.75 383.41 215.87 387.20 C 218.47 387.16 221.24 387.69 223.72 386.68 C 227.32 385.06 227.91 379.49 224.77 377.14 C 222.24 375.18 218.77 376.03 215.82 375.84 Z" />
<path fill="#bdf3f6" opacity="1.00" d=" M 238.93 363.25 C 244.00 363.04 249.11 362.91 254.18 363.35 C 257.81 363.73 261.01 367.25 260.11 371.01 C 259.72 374.31 256.49 375.85 253.79 377.00 C 256.99 381.00 258.29 387.24 263.75 388.78 C 261.59 389.25 259.39 389.08 257.22 388.86 C 254.77 384.93 252.73 380.72 249.90 377.07 C 248.60 376.91 247.30 376.80 246.00 376.74 C 245.88 380.41 245.98 384.09 246.16 387.77 C 246.98 387.86 248.62 388.05 249.44 388.14 L 249.48 389.16 C 246.27 389.07 243.06 389.06 239.85 389.15 L 239.86 388.42 C 240.52 388.17 241.86 387.66 242.53 387.41 C 242.97 379.97 242.57 372.50 242.70 365.05 C 241.44 364.45 240.18 363.86 238.93 363.25 M 246.09 365.07 C 245.98 368.39 245.94 371.72 245.99 375.05 C 248.90 374.87 252.26 375.65 254.79 373.81 C 257.33 372.11 257.39 367.85 254.83 366.15 C 252.30 364.32 248.98 365.10 246.09 365.07 Z" />
<path fill="#bdf3f6" opacity="1.00" d=" M 274.83 380.95 C 277.61 374.69 279.51 368.01 282.99 362.08 C 287.31 369.89 289.70 378.60 293.52 386.65 C 294.40 387.76 295.67 388.47 296.94 389.05 C 293.63 389.13 290.32 389.12 287.01 389.00 C 287.73 388.59 289.17 387.77 289.89 387.35 C 289.08 385.08 288.23 382.83 287.30 380.62 C 283.87 380.62 280.44 380.68 277.01 380.70 C 276.22 382.75 275.31 384.76 274.80 386.91 C 275.40 388.02 276.29 388.72 277.47 389.00 C 274.82 389.07 272.18 389.15 269.54 389.15 L 269.44 388.37 C 273.19 387.93 273.44 383.66 274.83 380.95 M 277.82 378.83 C 280.77 378.83 283.73 378.80 286.68 378.74 C 285.18 375.11 283.80 371.44 282.40 367.78 C 280.41 371.26 279.24 375.10 277.82 378.83 Z" />
<path fill="#bdf3f6" opacity="1.00" d=" M 303.56 363.17 C 308.43 363.06 313.32 362.97 318.19 363.28 C 321.94 363.47 325.51 366.97 324.65 370.89 C 324.24 374.18 321.10 375.99 318.21 376.86 C 321.42 380.94 322.78 387.18 328.27 388.83 C 326.22 389.08 324.13 389.33 322.09 388.88 C 319.09 385.43 317.57 380.98 314.70 377.44 C 313.62 376.28 311.83 377.18 310.45 377.00 C 310.45 380.56 310.40 384.13 310.77 387.68 C 312.10 387.87 313.35 388.29 314.52 388.96 C 310.89 389.29 307.24 389.08 303.61 388.88 C 304.77 388.46 305.93 388.00 307.07 387.51 C 307.29 379.99 307.24 372.45 307.10 364.92 C 305.91 364.34 304.73 363.77 303.56 363.17 M 310.54 365.18 C 310.50 368.42 310.49 371.67 310.44 374.91 C 313.49 374.87 317.10 375.78 319.62 373.55 C 321.75 371.82 321.80 368.09 319.63 366.39 C 317.10 364.23 313.55 365.05 310.54 365.18 Z" />
<path fill="#bdf3f6" opacity="1.00" d=" M 333.57 363.15 C 337.05 363.00 340.53 363.09 344.01 363.20 C 343.09 363.80 342.18 364.40 341.27 365.00 C 343.66 368.79 345.59 372.91 348.51 376.34 C 350.65 372.54 352.92 368.82 355.10 365.05 C 354.28 364.39 353.46 363.74 352.64 363.09 C 355.41 363.07 358.18 363.05 360.95 363.14 C 358.44 363.93 356.56 366.03 355.31 368.28 C 353.48 371.46 351.24 374.40 349.64 377.70 C 348.84 380.83 349.39 384.13 349.38 387.32 C 350.50 387.90 351.64 388.45 352.79 388.98 C 349.55 389.17 346.31 389.09 343.07 389.02 C 344.35 388.60 345.92 387.63 345.95 386.12 C 346.21 382.35 346.48 378.20 343.78 375.18 C 340.52 371.08 338.90 365.12 333.57 363.15 Z" />
</g>
<g id="#30464859">
<path fill="#304648" opacity="0.35" d=" M 232.24 201.15 C 233.85 200.61 234.41 201.16 233.92 202.79 C 232.30 203.34 231.73 202.79 232.24 201.15 Z" />
<path fill="#304648" opacity="0.35" d=" M 327.52 211.44 C 322.99 215.50 316.21 217.37 312.48 222.61 C 313.24 222.55 314.76 222.43 315.52 222.37 L 315.75 222.35 C 315.43 222.74 314.80 223.51 314.48 223.90 C 314.86 224.36 315.62 225.28 316.00 225.74 C 312.92 225.08 309.66 225.15 306.74 223.83 C 307.36 222.67 307.96 221.49 308.54 220.31 C 308.40 220.91 308.10 222.10 307.95 222.70 C 308.92 222.60 310.86 222.40 311.82 222.30 C 316.16 217.53 322.09 214.74 327.52 211.44 Z" />
<path fill="#304648" opacity="0.35" d=" M 298.93 219.66 C 298.57 218.57 298.89 217.72 299.90 217.12 C 300.81 218.53 300.49 219.37 298.93 219.66 Z" />
<path fill="#304648" opacity="0.35" d=" M 309.32 230.77 C 310.83 229.68 312.25 228.35 314.08 227.83 C 315.94 227.27 317.14 229.11 318.03 230.41 C 318.30 230.82 318.84 231.64 319.11 232.05 C 319.29 232.29 319.63 232.78 319.81 233.03 C 317.54 233.39 315.90 231.35 314.17 230.25 C 313.10 230.86 312.05 231.47 310.99 232.08 C 310.57 231.75 309.74 231.10 309.32 230.77 Z" />
<path fill="#304648" opacity="0.35" d=" M 318.97 230.59 C 318.46 228.01 322.76 227.95 321.72 230.59 C 320.81 230.72 319.87 230.80 318.97 230.59 Z" />
<path fill="#304648" opacity="0.35" d=" M 210.16 228.92 C 210.62 229.15 211.56 229.61 212.03 229.84 L 211.23 230.30 L 210.27 229.82 L 210.16 228.92 Z" />
<path fill="#304648" opacity="0.35" d=" M 189.75 230.24 C 195.67 231.00 201.50 232.44 207.17 234.29 C 201.30 233.24 195.48 231.93 189.75 230.24 Z" />
<path fill="#304648" opacity="0.35" d=" M 135.92 232.07 C 143.66 231.30 151.55 230.52 159.28 231.88 C 152.31 232.02 145.31 231.37 138.37 232.26 C 145.74 234.45 153.58 233.73 161.17 234.16 C 157.34 234.53 153.52 234.97 149.73 235.63 C 152.73 235.67 155.73 235.65 158.73 235.66 L 158.66 236.97 C 156.26 237.03 153.86 237.11 151.46 237.16 C 149.14 237.17 146.82 237.05 144.50 236.92 L 145.30 236.00 C 145.55 235.70 146.05 235.09 146.31 234.78 C 143.37 234.21 140.40 233.82 137.43 233.49 C 137.05 233.13 136.30 232.43 135.92 232.07 Z" />
<path fill="#304648" opacity="0.35" d=" M 216.88 231.03 C 219.21 231.48 221.54 231.96 223.89 232.27 C 224.31 231.99 225.15 231.43 225.57 231.15 L 226.09 230.80 C 227.15 231.97 228.30 233.04 229.56 234.00 C 228.80 234.05 227.28 234.14 226.52 234.18 L 225.96 233.94 C 225.49 233.71 224.54 233.24 224.07 233.01 C 221.53 232.98 219.21 231.88 216.88 231.03 Z" />
<path fill="#304648" opacity="0.35" d=" M 241.36 233.09 C 241.78 233.42 242.62 234.07 243.04 234.40 L 243.22 235.06 C 242.31 237.10 239.66 234.20 241.36 233.09 Z" />
<path fill="#304648" opacity="0.35" d=" M 352.31 234.04 C 351.80 232.26 355.35 232.67 354.62 234.31 C 354.04 234.24 352.89 234.11 352.31 234.04 Z" />
<path fill="#304648" opacity="0.35" d=" M 348.05 235.76 C 348.42 235.33 349.17 234.46 349.54 234.03 L 351.06 233.44 C 351.18 234.03 351.41 235.21 351.52 235.81 C 351.63 236.34 351.84 237.40 351.95 237.93 C 350.66 237.20 349.35 236.47 348.05 235.76 Z" />
<path fill="#304648" opacity="0.35" d=" M 356.01 234.05 C 358.07 234.16 356.58 237.71 354.97 236.42 L 354.72 235.84 C 355.04 235.39 355.69 234.50 356.01 234.05 Z" />
<path fill="#304648" opacity="0.35" d=" M 232.85 235.27 C 233.54 235.22 234.91 235.11 235.60 235.06 C 237.30 235.57 238.80 236.63 240.39 237.42 C 239.31 237.73 238.22 238.02 237.13 238.30 L 236.92 238.08 C 236.50 237.62 235.67 236.72 235.25 236.26 C 234.65 236.01 233.45 235.52 232.85 235.27 Z" />
<path fill="#304648" opacity="0.35" d=" M 299.59 238.18 C 298.31 236.78 300.58 234.14 302.12 235.30 C 301.88 236.65 300.55 237.37 299.59 238.18 Z" />
<path fill="#304648" opacity="0.35" d=" M 306.36 237.94 C 305.80 235.53 306.87 234.62 308.96 235.34 C 307.87 236.21 306.95 237.25 306.22 238.46 C 304.92 238.00 303.71 237.36 303.04 236.10 C 304.10 236.80 305.20 237.42 306.36 237.94 Z" />
<path fill="#304648" opacity="0.35" d=" M 183.41 237.45 C 189.37 237.49 195.40 238.27 201.08 240.14 C 195.19 239.24 189.31 238.26 183.41 237.45 Z" />
<path fill="#304648" opacity="0.35" d=" M 208.92 237.23 C 214.69 237.96 220.14 240.36 225.97 240.69 C 227.34 240.86 228.81 240.81 230.06 241.50 C 222.84 241.41 215.66 239.69 208.92 237.23 Z" />
<path fill="#304648" opacity="0.35" d=" M 324.97 240.39 C 329.34 240.48 334.16 239.46 338.19 241.63 C 333.81 240.86 329.29 241.49 324.97 240.39 Z" />
<path fill="#304648" opacity="0.35" d=" M 158.20 241.92 C 159.43 241.49 160.70 241.19 161.99 241.02 C 171.72 240.46 181.48 241.14 191.14 242.31 C 191.10 242.94 191.02 244.21 190.98 244.84 C 184.65 244.11 178.25 244.40 171.96 243.27 C 167.92 242.55 163.72 243.57 159.74 242.64 L 158.20 241.92 Z" />
<path fill="#304648" opacity="0.35" d=" M 230.59 242.59 C 231.67 242.44 233.30 242.34 233.78 243.59 C 232.97 244.64 230.02 244.19 230.59 242.59 Z" />
<path fill="#304648" opacity="0.35" d=" M 236.06 243.25 L 236.84 242.78 C 237.09 243.11 237.59 243.76 237.84 244.09 C 237.46 244.06 236.70 244.00 236.32 243.97 L 236.06 243.25 Z" />
<path fill="#304648" opacity="0.35" d=" M 240.70 244.88 C 241.52 245.80 242.33 246.73 243.13 247.69 C 243.00 248.05 242.75 248.77 242.62 249.13 C 240.79 249.15 239.69 247.43 238.02 247.01 C 237.50 247.17 236.45 247.49 235.93 247.65 C 235.74 247.33 235.35 246.67 235.16 246.34 C 236.81 246.21 238.46 246.08 240.11 245.92 L 240.70 244.88 Z" />
<path fill="#304648" opacity="0.35" d=" M 287.29 247.13 C 287.96 245.44 291.18 245.70 292.67 246.39 C 291.37 248.03 289.05 247.25 287.29 247.13 Z" />
<path fill="#304648" opacity="0.35" d=" M 292.62 248.79 C 293.40 248.10 294.17 247.40 294.94 246.70 C 294.34 250.74 289.57 249.35 286.73 249.08 C 288.70 249.02 290.66 248.91 292.62 248.79 Z" />
<path fill="#304648" opacity="0.35" d=" M 244.60 251.73 C 244.65 251.06 244.76 249.72 244.81 249.05 C 245.33 249.54 246.36 250.53 246.87 251.03 C 247.94 252.12 249.56 253.15 248.92 254.93 C 246.87 255.55 245.83 253.39 244.57 252.26 L 244.60 251.73 Z" />
<path fill="#304648" opacity="0.35" d=" M 303.44 255.91 C 303.80 255.64 304.53 255.11 304.90 254.84 C 306.27 254.79 307.64 254.90 309.00 255.18 C 307.47 256.59 305.28 256.53 303.44 255.91 Z" />
</g>
<g id="#607b77fc">
<path fill="#607b77" opacity="1.00" d=" M 207.72 217.39 L 208.33 216.87 C 209.06 217.42 209.80 217.99 210.52 218.57 C 209.79 219.19 209.08 219.81 208.38 220.46 L 208.07 220.72 C 207.09 220.31 206.10 219.95 205.13 219.54 C 206.00 218.82 206.86 218.11 207.72 217.39 Z" />
<path fill="#607b77" opacity="1.00" d=" M 226.09 230.80 C 229.30 232.14 232.83 232.82 235.60 235.06 C 234.91 235.11 233.54 235.22 232.85 235.27 C 233.45 235.52 234.65 236.01 235.25 236.26 C 235.67 236.72 236.50 237.62 236.92 238.08 C 233.27 237.29 229.81 235.90 226.52 234.18 C 227.28 234.14 228.80 234.05 229.56 234.00 C 228.30 233.04 227.15 231.97 226.09 230.80 Z" />
<path fill="#607b77" opacity="1.00" d=" M 160.84 232.02 C 166.76 231.96 172.58 233.73 177.80 236.44 L 177.99 237.08 L 178.31 238.27 C 179.96 238.74 181.62 239.19 183.30 239.58 C 174.51 239.47 165.77 237.98 156.97 238.07 C 155.09 238.11 153.23 237.76 151.46 237.16 C 153.86 237.11 156.26 237.03 158.66 236.97 L 158.73 235.66 C 155.73 235.65 152.73 235.67 149.73 235.63 C 153.52 234.97 157.34 234.53 161.17 234.16 C 162.71 233.98 164.24 233.78 165.76 233.55 C 164.13 233.01 162.50 232.48 160.84 232.02 M 164.04 235.79 C 164.21 236.41 164.56 237.65 164.73 238.27 C 167.45 238.32 170.17 238.11 172.85 237.64 C 170.25 235.75 167.15 235.41 164.04 235.79 Z" />
<path fill="#607b77" opacity="1.00" d=" M 224.07 233.01 C 224.54 233.24 225.49 233.71 225.96 233.94 L 225.17 234.40 L 224.20 233.93 L 224.07 233.01 Z" />
<path fill="#607b77" opacity="1.00" d=" M 134.71 236.43 C 138.20 235.76 141.76 235.78 145.30 236.00 L 144.50 236.92 C 141.24 237.46 137.91 237.16 134.71 236.43 Z" />
<path fill="#607b77" opacity="1.00" d=" M 343.60 242.10 C 341.76 240.61 345.35 237.20 345.82 239.90 C 345.15 240.70 344.40 241.44 343.60 242.10 Z" />
<path fill="#607b77" opacity="1.00" d=" M 365.53 243.88 C 368.81 240.98 373.24 243.63 377.05 243.66 C 373.22 244.03 369.36 244.33 365.53 243.88 Z" />
<path fill="#607b77" opacity="1.00" d=" M 198.47 245.74 L 199.19 245.58 C 203.01 245.66 198.17 248.98 198.47 245.74 Z" />
<path fill="#607b77" opacity="1.00" d=" M 192.77 248.40 C 197.23 248.26 201.89 247.07 206.17 248.83 C 201.72 248.10 197.20 249.18 192.77 248.40 Z" />
</g>
<g id="#86b2b5fc">
<path fill="#86b2b5" opacity="1.00" d=" M 300.22 226.65 C 302.47 225.13 304.59 223.43 306.87 221.95 C 307.10 225.52 303.72 227.12 301.30 228.92 C 301.04 228.38 300.53 227.30 300.27 226.76 L 300.22 226.65 Z" />
</g>
</svg>
